<svg width="172" height="108" xmlns="http://www.w3.org/2000/svg" xmlns:xlink="http://www.w3.org/1999/xlink"><defs><path d="M311.17 505.32v-73.57h132.68v73.57H311.17z" id="a"/><path d="M312.53 433.31v-8.37h132.68v8.37H312.53z" id="b"/><path d="M414.79 429.7v-1.16h9.92v1.16h-9.92z" id="d"/><path d="M401.74 429.7v-1.16h9.92v1.16h-9.92z" id="e"/><path d="M332.13 429.99v-2.1h21.8v2.1h-21.8z" id="f"/><path d="M334.1 502.56v-3.15h57.35v3.15H334.1z" id="g"/><path d="M334.1 492.32v-1.92h57.35v1.92H334.1z" id="h"/><path d="M334.1 482.7v-1.92h44.77v1.92H334.1z" id="i"/><path d="M334.1 473.08v-1.92h57.35v1.92H334.1z" id="j"/><path d="M395.21 463.46v-1.92h30.28v1.92h-30.28z" id="k"/><path d="M334.1 463.46v-1.92h57.35v1.92H334.1z" id="l"/><path d="M334.1 454.23v-20.92h91.38v20.92H334.1z" id="m"/><path d="M340.57 458.8v-10.5h10.5v10.5h-10.5z" id="n"/><path d="M395.21 480.34v-13.05h13.05v13.05h-13.05z" id="o"/><path d="M412.43 480.34v-13.05h13.05v13.05h-13.05z" id="p"/><path d="M395.21 497.89v-13.05h13.05v13.05h-13.05z" id="q"/><path d="M412.43 497.89v-13.05h13.05v13.05h-13.05z" id="r"/><path d="M292.59 520.03s2.98-3.58 11.34-3.58h149.12c8.37 0 11.34 3.58 11.34 3.58h-171.8z" id="s"/><path d="M292.59 525.44v-5.42h171.8v5.42h-171.8z" id="u"/><path d="M390.63 525.44v-.53c0-1.46-.98-2.67-2.17-2.67h-19.94c-1.19 0-2.16 1.2-2.16 2.67v.53h24.27z" id="w"/><path d="M440.85 426.26v75.68c0 .4-.33.72-.73.72H316.87a.72.72 0 0 1-.73-.72v-75.68c0-.4.33-.72.73-.72h123.25c.4 0 .73.32.73.72zm.83-8.97H315.3a5.97 5.97 0 0 0-5.96 5.97v81.68c0 3.3 2.67 5.97 5.96 5.97h126.38c3.29 0 5.96-2.67 5.96-5.97v-81.68c0-3.3-2.67-5.97-5.96-5.97z" id="y"/><path d="M316.15 501.95v-75.7c0-.4.32-.71.72-.72h123.26c.4 0 .72.33.72.73v75.69c0 .4-.33.72-.72.72H316.87a.72.72 0 0 1-.72-.72zm125.53-84.46H315.3a5.77 5.77 0 0 0-5.77 5.77v81.68a5.77 5.77 0 0 0 5.77 5.77h126.37a5.77 5.77 0 0 0 5.76-5.77v-81.68a5.77 5.77 0 0 0-5.76-5.77h.01z" id="A"/><path d="M440.12 502.66H316.87a.72.72 0 0 1-.72-.72v-75.68c0-.4.32-.72.72-.72h123.25c.4 0 .72.32.72.72v75.68c0 .4-.32.72-.72.72zm1.56-84.93H315.31a5.54 5.54 0 0 0-5.54 5.54v81.67a5.54 5.54 0 0 0 5.54 5.54h126.37a5.54 5.54 0 0 0 5.54-5.54v-81.68a5.54 5.54 0 0 0-5.54-5.53z" id="C"/><path d="M379.54 421.6a1.05 1.05 0 1 1-2.1 0 1.05 1.05 0 0 1 2.1 0z" id="D"/><path d="M378.49 422.6a1 1 0 1 1 0-1.99 1 1 0 0 1 0 1.98v.01zm0-2.12a1.11 1.11 0 1 0 0 2.22 1.11 1.11 0 0 0 0-2.22z" id="E"/><path d="M378.87 421.63a.38.38 0 1 1-.77 0 .38.38 0 0 1 .77 0z" id="G"/><path d="M292.59 513.97s2.98 2.47 11.34 2.47h149.12c8.37 0 11.34-2.47 11.34-2.47h-171.8z" id="I"/><path d="M292.59 513.98v-3.75h171.8v3.75h-171.8z" id="K"/><path d="M390.63 510.23v.37c0 1.01-.98 1.84-2.17 1.84h-19.94c-1.19 0-2.16-.83-2.16-1.84v-.37h24.27z" id="M"/><path d="M447.2 423.25v81.69a5.54 5.54 0 0 1-5.54 5.54h-41.6l-35.59-92.75h77.2a5.54 5.54 0 0 1 5.53 5.52z" id="O"/><path d="M400.95 472.13l27.9 10.95-11.8 5.15-5.15 11.8-10.95-27.9z" id="Q"/><path d="M398.59 465.85l-.44.23c-.41.22-.81.48-1.18.78l-.39.3-.6-.77.38-.3c.42-.34.86-.63 1.33-.88l.44-.24.46.88zm-4.59 3.53l-.9-.4.2-.45c.22-.49.48-.95.78-1.4l.28-.4.8.56-.27.4c-.27.4-.5.81-.7 1.24l-.19.45zm7.83-5.1h-.5c-.47 0-.94.05-1.4.14l-.49.09-.18-.97.48-.1c.52-.09 1.05-.14 1.59-.14h.5v.98zm-8.27 8.85l-.97.06-.03-.5a9.03 9.03 0 0 1 .04-1.59l.06-.49.97.12-.06.49c-.05.47-.07.94-.04 1.42l.03.49zm11.86-7.74l-.42-.23c-.42-.21-.85-.4-1.3-.53l-.47-.15.29-.93.47.14c.5.16 1 .36 1.47.6l.43.23-.47.87zm-10.5 11.24l-.84.53-.26-.42a9 9 0 0 1-.7-1.44l-.18-.46.93-.35.17.46c.17.44.38.87.63 1.27l.25.41zm14-9.1l-.8.55-.29-.4a7.91 7.91 0 0 0-.9-1.1l-.37-.37.69-.7.37.38c.38.38.72.79 1.02 1.22l.28.42zm-11.69 12.43l-.42-.25c-.45-.28-.88-.6-1.28-.95l-.37-.32.65-.75.37.33c.35.31.74.6 1.14.84l.42.25-.51.85zm12.97-8.4l-.97.12-.06-.5a8.06 8.06 0 0 0-.3-1.38l-.14-.47.93-.3.15.48c.15.5.26 1.03.33 1.56l.06.49zm-8.87 9.43l-.48-.03a8.9 8.9 0 0 1-1.58-.24l-.47-.12.23-.95.48.11c.46.12.92.19 1.4.21l.48.03-.06.99z" id="R"/><linearGradient y2=".499" y1=".499" x2="1" id="c"><stop stop-color="#f45c3b" offset=".16"/><stop stop-color="#d8270b" offset="1"/></linearGradient><linearGradient y2=".891" y1="-.106" x2=".5" x1=".5" id="t"><stop stop-color="#212121" offset="0"/><stop stop-color="#313131" offset=".08"/><stop stop-color="#b0b0b0" offset=".72"/><stop stop-color="#9e9e9e" offset="1"/></linearGradient><linearGradient y2=".432" y1=".432" x2="1" id="v"><stop stop-color="#282726" offset="0"/><stop stop-color="#474645" offset="0"/><stop stop-color="#727170" offset="0"/><stop stop-color="#989797" offset="0"/><stop stop-color="#b8b8b7" offset="0"/><stop stop-color="#d2d2d1" offset="0"/><stop stop-color="#e6e6e6" offset="0"/><stop stop-color="#f4f4f4" offset=".01"/><stop stop-color="#fcfcfc" offset=".01"/><stop stop-color="#fff" offset=".01"/><stop stop-color="#bbbbbc" offset=".02"/><stop stop-color="#bbbbbc" offset=".02"/><stop stop-color="#d4d4d4" offset=".06"/><stop stop-color="#e5e5e6" offset=".1"/><stop stop-color="#f0f0f0" offset=".15"/><stop stop-color="#f3f3f3" offset=".2"/><stop stop-color="#e9e9e9" offset=".5"/><stop stop-color="#ebebeb" offset=".71"/><stop stop-color="#f2f2f2" offset=".79"/><stop stop-color="#f3f3f3" offset=".8"/><stop stop-color="#f0f0f0" offset=".85"/><stop stop-color="#e5e5e5" offset=".9"/><stop stop-color="#d3d3d4" offset=".94"/><stop stop-color="#bbbbbc" offset=".98"/><stop stop-color="#fff" offset=".99"/><stop stop-color="#fcfcfc" offset=".99"/><stop stop-color="#f4f4f4" offset=".99"/><stop stop-color="#e6e6e6" offset="1"/><stop stop-color="#d2d2d1" offset="1"/><stop stop-color="#b8b8b7" offset="1"/><stop stop-color="#989797" offset="1"/><stop stop-color="#727170" offset="1"/><stop stop-color="#474645" offset="1"/><stop stop-color="#282726" offset="1"/></linearGradient><radialGradient gradientUnits="userSpaceOnUse" r="13.34" cy="516.07" cx="378.42" id="x"><stop stop-color="#f3f3f3" offset="0"/><stop stop-color="#d1d2d2" offset=".5"/><stop stop-color="#cfd0d0" offset=".69"/><stop stop-color="#c8c9c9" offset=".75"/><stop stop-color="#bdbebe" offset=".8"/><stop stop-color="#acadad" offset=".84"/><stop stop-color="#979797" offset=".87"/><stop stop-color="#7c7c7b" offset=".9"/><stop stop-color="#5c5c5b" offset=".93"/><stop stop-color="#383837" offset=".95"/><stop stop-color="#282726" offset=".96"/></radialGradient><linearGradient y2="1" x2=".5" x1=".5" id="z"><stop stop-color="#d1d2d2" offset="0"/><stop stop-color="#cdcece" offset=".15"/><stop stop-color="#c1c2c2" offset=".3"/><stop stop-color="#adaeae" offset=".45"/><stop stop-color="#919292" offset=".6"/><stop stop-color="#6e6e6e" offset=".75"/><stop stop-color="#464646" offset=".89"/><stop stop-color="#717272" offset="1"/></linearGradient><linearGradient y2="1" x2=".5" x1=".5" id="B"><stop stop-color="#333" offset=".05"/><stop stop-color="#4c4c4c" offset=".1"/><stop stop-color="#6c6c6d" offset=".18"/><stop stop-color="#858686" offset=".25"/><stop stop-color="#979899" offset=".33"/><stop stop-color="#a2a3a3" offset=".42"/><stop stop-color="#a5a6a7" offset=".51"/><stop stop-color="#a3a4a5" offset=".72"/><stop stop-color="#9c9d9e" offset=".79"/><stop stop-color="#919293" offset=".84"/><stop stop-color="#808182" offset=".89"/><stop stop-color="#6a6b6c" offset=".92"/><stop stop-color="#505050" offset=".95"/><stop stop-color="#313131" offset=".98"/><stop stop-color="#181818" offset="1"/></linearGradient><linearGradient y2=".505" y1=".505" x2="1.003" id="F"><stop stop-color="#0e0e0e" offset="0"/><stop stop-color="#8d8e8f" offset="1"/></linearGradient><radialGradient gradientUnits="userSpaceOnUse" r=".75" cy="421.5" cx="378.29" id="H"><stop stop-color="#a5a6a7" offset="0"/><stop stop-color="#949596" offset=".01"/><stop stop-color="#787879" offset=".03"/><stop stop-color="#626262" offset=".05"/><stop stop-color="#525252" offset=".07"/><stop stop-color="#494949" offset=".1"/><stop stop-color="#464646" offset=".13"/><stop offset=".94"/></radialGradient><linearGradient y1="1.004" x2=".5" x1=".5" id="J"><stop stop-color="#212121" offset="0"/><stop stop-color="#313131" offset=".08"/><stop stop-color="#b0b0b0" offset=".72"/><stop stop-color="#9e9e9e" offset="1"/></linearGradient><linearGradient y2=".499" y1=".499" x2="1" id="L"><stop stop-color="#282726" offset="0"/><stop stop-color="#474645" offset="0"/><stop stop-color="#727170" offset="0"/><stop stop-color="#989797" offset="0"/><stop stop-color="#b8b8b7" offset="0"/><stop stop-color="#d2d2d1" offset="0"/><stop stop-color="#e6e6e6" offset="0"/><stop stop-color="#f4f4f4" offset=".01"/><stop stop-color="#fcfcfc" offset=".01"/><stop stop-color="#fff" offset=".01"/><stop stop-color="#bbbbbc" offset=".02"/><stop stop-color="#bbbbbc" offset=".02"/><stop stop-color="#d4d4d4" offset=".06"/><stop stop-color="#e5e5e6" offset=".1"/><stop stop-color="#f0f0f0" offset=".15"/><stop stop-color="#f3f3f3" offset=".2"/><stop stop-color="#e9e9e9" offset=".5"/><stop stop-color="#ebebeb" offset=".71"/><stop stop-color="#f2f2f2" offset=".79"/><stop stop-color="#f3f3f3" offset=".8"/><stop stop-color="#f0f0f0" offset=".85"/><stop stop-color="#e5e5e5" offset=".9"/><stop stop-color="#d3d3d4" offset=".94"/><stop stop-color="#bbbbbc" offset=".98"/><stop stop-color="#fff" offset=".99"/><stop stop-color="#fcfcfc" offset=".99"/><stop stop-color="#f4f4f4" offset=".99"/><stop stop-color="#e6e6e6" offset="1"/><stop stop-color="#d2d2d1" offset="1"/><stop stop-color="#b8b8b7" offset="1"/><stop stop-color="#989797" offset="1"/><stop stop-color="#727170" offset="1"/><stop stop-color="#474645" offset="1"/><stop stop-color="#282726" offset="1"/></linearGradient><radialGradient gradientUnits="userSpaceOnUse" r="13.34" cy="507.96" cx="378.42" id="N"><stop stop-color="#f3f3f3" offset="0"/><stop stop-color="#d1d2d2" offset=".5"/><stop stop-color="#cfd0d0" offset=".69"/><stop stop-color="#c8c9c9" offset=".75"/><stop stop-color="#bdbebe" offset=".8"/><stop stop-color="#acadad" offset=".84"/><stop stop-color="#979797" offset=".87"/><stop stop-color="#7c7c7b" offset=".9"/><stop stop-color="#5c5c5b" offset=".93"/><stop stop-color="#383837" offset=".95"/><stop stop-color="#282726" offset=".96"/></radialGradient><linearGradient y2="1" x2=".5" x1=".5" id="P"><stop stop-color="#e9e9e9" offset="0"/><stop stop-color="#fff" offset="1"/></linearGradient></defs><path fill="none" d="M-1-1h174v110H-1z"/><g stroke="null"><use x="-292.59" y="-417.29" xlink:href="#a" fill="#fff"/><use x="-292.59" y="-417.29" xlink:href="#b" fill="url(#c)"/><use x="-292.59" y="-417.29" xlink:href="#d" fill="#fff"/><use x="-292.59" y="-417.29" xlink:href="#e" fill="#fff"/><use x="-292.59" y="-417.29" xlink:href="#f" fill="#fff"/><use x="-292.59" y="-417.29" xlink:href="#g" fill="#e6e7e8"/><use x="-292.59" y="-417.29" xlink:href="#h" fill="#e6e7e8"/><use x="-292.59" y="-417.29" xlink:href="#i" fill="#e6e7e8"/><use x="-292.59" y="-417.29" xlink:href="#j" fill="#e6e7e8"/><use x="-292.59" y="-417.29" xlink:href="#k" fill="#bdbdbd"/><use x="-292.59" y="-417.29" xlink:href="#l" fill="#bdbdbd"/><use x="-292.59" y="-417.29" xlink:href="#m" fill="#bdbdbd"/><use x="-292.59" y="-417.29" xlink:href="#n" fill="#e6e7e8"/><use x="-292.59" y="-417.29" xlink:href="#o" fill="#bdbdbd"/><use x="-292.59" y="-417.29" xlink:href="#p" fill="#e6e7e8"/><use x="-292.59" y="-417.29" xlink:href="#q" fill="#e6e7e8"/><use x="-292.59" y="-417.29" xlink:href="#r" fill="#bdbdbd"/><use x="-292.59" y="-417.29" xlink:href="#s" fill="url(#t)"/><use x="-292.59" y="-417.29" xlink:href="#u" fill="url(#v)"/><use x="-292.59" y="-417.29" xlink:href="#w" fill="url(#x)"/><use x="-292.59" y="-417.29" xlink:href="#y" fill="url(#z)"/><use x="-292.59" y="-417.29" xlink:href="#A" fill="url(#B)"/><use x="-292.59" y="-417.29" xlink:href="#C" fill="#0e0e0e"/><use x="-292.59" y="-417.29" xlink:href="#D"/><use x="-292.59" y="-417.29" xlink:href="#E" fill="url(#F)"/><use x="-292.59" y="-417.29" xlink:href="#G" fill="url(#H)"/><use x="-292.59" y="-417.29" xlink:href="#I" fill="url(#J)"/><use x="-292.59" y="-417.29" xlink:href="#K" fill="url(#L)"/><use x="-292.59" y="-417.29" xlink:href="#M" fill="url(#N)"/><use x="-292.59" y="-417.29" xlink:href="#O" fill="url(#P)" opacity=".5"/><g fill="#393c3e"><use x="-292.59" y="-417.29" xlink:href="#Q"/><use x="-292.59" y="-417.29" xlink:href="#R"/></g></g></svg>
