<svg width="172" height="122" xmlns="http://www.w3.org/2000/svg" xmlns:xlink="http://www.w3.org/1999/xlink"><defs><path d="M781.37 451.96c-.12.84-.9 1.42-1.73 1.3l-20.88-2.98a1.54 1.54 0 0 1-1.3-1.74l4.2-29.44c.13-.84.9-1.42 1.74-1.3l20.88 2.98c.84.12 1.43.9 1.3 1.73l-4.21 29.45z" id="a"/><path d="M784.28 420.78l-.26-.04a1.53 1.53 0 0 1 1.3 1.74l-4.2 29.44a1.54 1.54 0 0 1-1.74 1.3l.25.04c.84.12 1.62-.46 1.74-1.3l4.2-29.45a1.54 1.54 0 0 0-1.3-1.73h.01z" id="b"/><path d="M783.65 420.69l-.26-.04c.84.12 1.42.9 1.3 1.74l-4.2 29.44a1.53 1.53 0 0 1-1.74 1.3l.25.04c.84.12 1.62-.46 1.74-1.3l4.2-29.45a1.54 1.54 0 0 0-1.3-1.73h.01z" id="c"/><path d="M783.02 420.6l-.26-.04c.84.12 1.42.9 1.3 1.74l-4.2 29.44c-.12.84-.9 1.42-1.74 1.3l.25.04c.84.12 1.62-.46 1.74-1.3l4.2-29.45a1.54 1.54 0 0 0-1.3-1.73h.01z" id="d"/><path d="M779.85 451.75c-.12.84-.9 1.42-1.74 1.3l-20.88-2.98a1.54 1.54 0 0 1-1.3-1.74l4.2-29.45c.12-.84.9-1.42 1.74-1.3l20.88 2.98c.84.12 1.42.9 1.3 1.74l-4.2 29.45z" id="e"/><path d="M769.95 455.67c-.19.15-.74.51-1.6.27l-.1.01.06-.03-.06-.02.1-.01c.78-.53 1.38-.36 1.6-.27l.07-.01-.04.03.04.02-.07.01z" id="f"/><path d="M768.37 454.71c-.33-.38-.4-.83-.16-1.25v-.08c0 .02.02.03.03.04 0-.01 0-.03.02-.04v.08c.34.39.4.84.16 1.25v.06l-.03-.03c0 .02-.02.03-.02.03v-.06z" id="g"/><path d="M769.55 452.8c-.1.17-.41.62-1.17.83l-.07.06c0-.02.02-.03.03-.04h-.05l.08-.04c.43-.65.97-.8 1.16-.84l.05-.04-.01.03a.2.2 0 0 1 .03 0l-.05.04z" id="h"/><path d="M767.25 452.75c.29.12.44.28.43.45l.03.03-.03-.02v.02l-.03-.03c-.28-.12-.43-.28-.42-.45l-.02-.02.02.01v-.01l.02.02z" id="i"/><path d="M767.45 452.44c-.36.35-.78.41-1.16.19h-.08l.04-.03-.04-.02h.08c.35-.35.77-.41 1.16-.19h.05l-.02.03.02.03-.05-.01z" id="j"/><path d="M769.13 444.24a2.1 2.1 0 0 1-1.34-.88l-.09-.06.05.01-.03-.04.09.06c.84.2 1.22.69 1.34.87l.06.04h-.04l.02.04-.06-.04z" id="k"/><path d="M768.43 442.43c.1-.42.37-.79.74-1.01l.05-.07-.02.04.04-.02-.05.06c-.1.43-.37.79-.74 1.02l-.03.04v-.03l-.03.02.04-.05z" id="l"/><path d="M770.67 441.96c-.18.1-.72.31-1.43-.2h-.09l.05-.03-.05-.03.1.02c.75-.32 1.26.03 1.42.18l.07.01-.03.02.03.03h-.07z" id="m"/><path d="M769.25 440.28c.02.17-.14.33-.44.45l-.03.03v-.02l-.03.02.03-.03c-.02-.17.13-.33.44-.45v-.02.01h.02l.01.01z" id="n"/><path d="M769.35 440.13c-.4-.1-.73-.34-.95-.68l-.06-.05.04.01-.02-.03.06.04c.39.1.73.34.95.68l.04.03h-.03l.01.03-.04-.03z" id="o"/><path d="M769.7 449.78c-.47-.16-.84-.5-1.05-.94l-.07-.07.05.02-.03-.04.07.06c.7.3.96.77 1.04.95l.05.04-.03-.01.01.03-.04-.04z" id="p"/><path d="M768.03 447.79a1.33 1.33 0 0 1-.91-.44l-.06-.03h.04l-.03-.02.06.03c.35.02.68.17.91.43l.04.02h-.02l.01.02-.04-.01z" id="q"/><path d="M764.33 447.95c.32.24.47.54.42.84l.03.06-.03-.03v.03l-.03-.05c-.32-.24-.47-.54-.42-.85l-.02-.03.03.01v-.02l.02.04z" id="r"/><path d="M763.34 448.25c.1.3-.06.6-.42.83l-.03.05v-.03a.36.36 0 0 0-.03.03l.03-.06c-.1-.29.06-.58.42-.82l.02-.04v.02l.03-.01-.02.03z" id="s"/><path d="M763.64 446.6c-.03.21-.19.41-.44.55l-.03.04v-.02l-.02.01.03-.03c.03-.22.19-.42.43-.57l.02-.02v.02l.02-.01-.01.03z" id="t"/><path d="M760.77 446.36c.34.38.41.82.19 1.23v.09c0-.02-.02-.03-.03-.04l-.02.04-.02-.08c-.34-.39-.4-.83-.18-1.24v-.06l.03.03.02-.03.01.06z" id="u"/><path d="M764.53 444.2c0 .28-.16.55-.44.75l-.02.05v-.03l-.03.02.03-.05c0-.28.16-.56.43-.75l.02-.04v.02l.02-.01-.01.04z" id="v"/><path d="M760.67 443.16c-.38.36-.83.48-1.27.34l-.08.02.03-.03-.04-.01.08-.02c.38-.36.84-.48 1.28-.34l.05-.02-.02.03.03.02-.06.01z" id="w"/><path d="M761.7 440.57c-.13.14-.57.47-1.32.42l-.08.03.04-.03h-.05l.09-.03c.37-.32.84-.48 1.32-.42l.06-.02-.03.03h.04l-.07.02z" id="x"/><path d="M765.6 440.7c-.23.3-.49.3-.71 0h-.05l.02-.02-.02-.03h.05c.22-.3.48-.3.7 0h.05l-.02.03.02.03-.04-.01z" id="y"/><path d="M766.24 439.57c.24.27.17.57-.2.82v.03l-.03.03v-.06c-.23-.27-.16-.57.2-.82v-.04l.03.02.03-.02-.03.04z" id="z"/><path d="M763.11 437.7c-.1.42-.38.79-.76 1.02l-.05.06.02-.04-.04.03.05-.07c.1-.43.38-.8.76-1.02l.03-.05v.03l.03-.01-.04.05z" id="A"/><path d="M764.36 437.4c-.1.31-.31.57-.6.73l-.04.04v-.03l-.02.02.04-.05c.1-.31.31-.57.6-.73l.03-.03v.02h.02l-.03.03z" id="B"/><path d="M763.2 435.3c-.26.34-.64.56-1.07.63l-.06.04.02-.03h-.04l.07-.04c.26-.35.64-.58 1.06-.64l.05-.03-.02.03h.04l-.05.04z" id="C"/><path d="M767.15 435.4c-.04.4-.23.77-.54 1.03l-.04.07v-.04l-.03.03.04-.07c.03-.4.23-.78.54-1.04l.02-.05v.03l.03-.02-.02.06z" id="D"/><path d="M766.78 434.74c-.14.4-.43.73-.8.92l-.06.06.02-.04-.04.02.05-.06c.14-.4.43-.73.8-.92l.04-.04v.03l.03-.01-.04.04z" id="E"/><path d="M765.58 433.17c-.08.37-.3.7-.62.92l-.04.06.01-.03-.03.02.04-.06c.07-.38.3-.71.61-.93l.03-.04v.03l.03-.02-.03.05z" id="F"/><path d="M765.13 431.5c-.4-.05-.75-.25-1-.55l-.07-.04h.04l-.03-.03.07.04c.4.04.75.24 1 .55l.05.02h-.03l.01.02-.04-.01z" id="G"/><path d="M767.51 430.74c-.27.13-.54 0-.77-.37l-.05-.02h.03l-.03-.03.05.02c.27-.13.55 0 .77.37h.04l-.02.01.02.03-.04-.01z" id="H"/><path d="M768.9 428.82c-.34.3-.8.46-1.25.44l-.08.03a.36.36 0 0 1 .04-.03h-.05l.08-.03c.35-.3.8-.46 1.25-.44l.06-.02-.02.02h.03l-.06.03z" id="I"/><path d="M767.98 427.31c-.23-.13-.4-.35-.47-.6l-.03-.05.02.02v-.03l.03.04a1 1 0 0 1 .46.6l.02.04-.02-.01v.02l-.01-.03z" id="J"/><path d="M766.43 424.97c-.19.24-.46.4-.76.43l-.05.03.02-.02h-.03l.05-.03c.19-.24.46-.4.76-.42l.04-.03-.02.02h.03l-.04.02z" id="K"/><path d="M767.44 422.62c-.15.33-.41.58-.75.71l-.04.05.01-.03-.03.01.05-.05c.14-.32.4-.58.74-.7l.03-.04v.02h.02l-.03.03z" id="L"/><path d="M766.34 422.64a1.38 1.38 0 0 1-.87-.56l-.06-.04h.04s-.02 0-.03-.02l.06.04c.35.06.67.27.87.56l.04.03h-.02v.02l-.03-.03z" id="M"/><path d="M767.12 419.6a.85.85 0 0 1-.52-.43l-.03-.03h.02l-.01-.02.03.03c.22.06.4.21.52.43l.03.02h-.02v.02l-.02-.02z" id="N"/><path d="M763.66 420.03c.14.18.46.7.08 1.47v.1c0-.02-.02-.04-.03-.05l-.02.04v-.1c-.47-.73-.2-1.28-.08-1.46v-.07l.03.03.02-.03v.07z" id="O"/><path d="M774.16 451.58c-.28-.14-.44-.33-.42-.52l-.03-.04.03.02v-.02l.03.03c.28.14.43.33.42.52l.02.03-.02-.01v.01l-.03-.02z" id="P"/><path d="M770.04 447.16c.05-.24.2-.46.44-.6l.02-.04v.02h.02l-.03.03a.93.93 0 0 1-.43.6l-.02.03v-.02l-.02.01.02-.03z" id="Q"/><path d="M775 446.52c.18.26.07.54-.3.77l-.02.05v-.03l-.03.03v-.05c-.17-.26-.06-.54.3-.77v-.04l.02.02.03-.02v.04z" id="R"/><path d="M774.27 445.59a.88.88 0 0 1 0-1.17v-.08l.03.04.03-.04v.08c.3.37.3.8 0 1.17v.05l-.03-.02-.02.02-.01-.05z" id="S"/><path d="M776.1 444.3a1.43 1.43 0 0 1-.69-.84l-.04-.05.03.02-.01-.04.04.06c.34.17.58.48.7.84l.02.04-.02-.01v.02l-.03-.04z" id="T"/><path d="M772.13 441.97c.32.13.47.3.42.47l.03.03-.03-.01v.01l-.03-.03c-.3-.13-.46-.3-.41-.47v-.02l.02.01v-.01.02z" id="U"/><path d="M775.03 440.93c.28.16.43.37.42.6l.03.03-.03-.02v.02l-.02-.04c-.29-.16-.44-.37-.43-.59l-.02-.03.02.02v-.02l.03.03z" id="V"/><path d="M775.18 438.21c.16.17.52.67.28 1.43l.02.09a.43.43 0 0 1-.04-.04l-.01.05-.02-.1c-.53-.69-.36-1.24-.28-1.42l-.01-.07.03.03a.2.2 0 0 1 .02-.03l.01.06z" id="W"/><path d="M773.04 437.64c.34.18.49.4.41.63l.03.04-.03-.01v.02l-.03-.04c-.35-.18-.5-.41-.42-.64l-.02-.03.03.02v-.02l.03.03z" id="X"/><path d="M770.86 437.74a1.63 1.63 0 0 1-.62-1.07l-.04-.07.03.02v-.04l.04.07c.34.26.56.65.62 1.08l.03.05-.03-.02v.03l-.03-.05z" id="Y"/><path d="M771.54 434.97c-.19.16-.75.52-1.6.24l-.1.01.05-.03-.05-.02.1-.01c.78-.52 1.39-.33 1.6-.24h.07l-.03.02.03.02-.07.01z" id="Z"/><path d="M774.02 434.1c-.1-.21-.31-.8.2-1.59v-.1l.03.05.03-.05-.02.1c.32.83-.03 1.4-.19 1.59v.07a.34.34 0 0 1-.03-.04l-.03.04.01-.07z" id="aa"/><path d="M769.44 429.95c.1.2.33.76-.16 1.52v.1l-.02-.06-.03.05v-.1c-.33-.79.01-1.33.16-1.51v-.07l.02.03.03-.03v.07z" id="ab"/><path d="M774.63 430.4c-.3-.12-.53-.36-.65-.66l-.04-.04h.03l-.01-.02.04.04c.3.13.52.37.64.67l.03.03h-.02v.02l-.02-.04z" id="ac"/><path d="M771.51 428.1c-.15.38-.45.7-.83.86l-.05.06.02-.04-.04.02.05-.06c.15-.38.45-.7.83-.86l.04-.04-.01.03.03-.01-.04.04z" id="ad"/><path d="M775.3 427.96c.3.32.28.68-.04 1v.06s0-.02-.03-.03l-.03.03v-.06c-.29-.33-.27-.69.06-1v-.05l.02.02.03-.02-.01.05z" id="ae"/><path d="M775.32 426.37c-.25.36-.55.48-.83.32l-.06.02.03-.03h-.03l.06-.03c.24-.36.55-.48.83-.32h.04l-.02.03h.02l-.04.01z" id="af"/><path d="M771 425.14a.9.9 0 0 1-.47.5l-.03.04.01-.02-.02.01.03-.03a.9.9 0 0 1 .47-.5l.02-.03v.02h.01l-.02.01z" id="ag"/><path d="M774.56 423.08c-.22.35-.49.5-.75.42l-.05.02.03-.03h-.03l.05-.03c.21-.36.48-.5.74-.41l.04-.03-.02.04h.02l-.03.02z" id="ah"/><path d="M769.5 422.46c-.28-.18-.28-.39 0-.57v-.04l.02.02c.03 0 0-.01 0-.02v.04c.28.18.28.39 0 .57v.02l-.02-.02z" id="ai"/><path d="M774.57 419.73c.28.2.44.47.42.75l.03.04-.03-.02v.03l-.02-.05c-.3-.2-.45-.47-.43-.74l-.02-.03h.02v-.01l.03.03z" id="aj"/><path d="M776.69 449.97c-.26.32-.59.47-.91.42l-.06.03.02-.03h-.03l.06-.03c.25-.32.58-.47.91-.42l.04-.02-.02.03h.03l-.04.02z" id="ak"/><path d="M778.59 449.64c-.15.26-.4.44-.68.52l-.05.04.02-.03h-.03l.05-.03c.14-.25.39-.44.68-.52l.03-.02-.01.02h.02l-.03.02z" id="al"/><path d="M777.79 447.57c-.13.44-.42.8-.82 1.03l-.06.07.02-.04c0-.02-.03.01-.04.02l.05-.07c.13-.44.43-.8.83-1.03l.04-.05v.03h.03l-.05.04z" id="am"/><path d="M776.3 445.55c.26.14.33.3.18.45v.03l-.03-.01v.01-.03c-.28-.14-.34-.3-.19-.45v-.02.01-.01l.04.02z" id="an"/><path d="M781.34 445.42c-.29-.02-.56-.18-.76-.44l-.05-.03h.03l-.02-.02.05.03c.29.02.57.17.76.43l.04.02h-.02v.02l-.03-.01z" id="ao"/><path d="M781.66 443.48c0 .4-.16.79-.44 1.08l-.02.07v-.04l-.03.03.03-.07c0-.4.15-.8.43-1.08l.02-.05v.03l.03-.02-.02.05z" id="ap"/><path d="M779.27 441.96c-.14.28-.38.49-.67.59l-.05.04.02-.03h-.03l.04-.03c.14-.27.38-.48.67-.58l.03-.03v.02h.02l-.03.02z" id="aq"/><path d="M779.9 441.6a1.77 1.77 0 0 1-1.05-.84l-.07-.06.05.02-.03-.04.07.06c.45.12.83.43 1.05.83l.05.04h-.03l.01.03-.05-.04z" id="ar"/><path d="M782.31 441.5c-.05-.2-.11-.76.41-1.42l.03-.09v.05a.45.45 0 0 1 .03-.04l-.03.09c.11.78-.26 1.26-.4 1.41l-.02.07-.02-.04-.03.03.03-.06z" id="as"/><path d="M781.33 439.51c-.09-.21-.26-.83.26-1.62l.02-.11.01.06a.81.81 0 0 1 .04-.05l-.02.1c.26.87-.1 1.44-.26 1.63l-.01.07a.21.21 0 0 1-.02-.04l-.03.04.01-.08z" id="at"/><path d="M781.28 438.1c-.26-.15-.46-.4-.54-.7l-.03-.04.02.02v-.03l.03.05c.26.14.46.4.53.68l.03.03h-.02v.02l-.02-.03z" id="au"/><path d="M779.63 437.37a1.5 1.5 0 0 1-.18-1.54l-.01-.1c0 .02.02.03.03.05l.02-.05.01.1c.5.76.28 1.34.18 1.54v.07a.34.34 0 0 1-.03-.03l-.02.04v-.08z" id="av"/><path d="M783.4 435.43c-.24.34-.54.49-.83.42l-.05.03.02-.03h-.03l.06-.03c.23-.34.53-.49.82-.42l.04-.02-.02.03h.02l-.03.02z" id="aw"/><path d="M783.28 432.66c-.04.3-.2.6-.46.78l-.03.05v-.03l-.02.02.03-.05c.04-.31.2-.6.46-.78l.02-.04v.02h.02l-.02.03z" id="ax"/><path d="M780.37 433.06c-.2-.08-.75-.36-1.1-1.15l-.07-.07.05.02-.02-.05.07.08c.77.38 1.03.94 1.1 1.14l.05.06-.04-.01.01.03-.05-.05z" id="ay"/><path d="M777.34 432.07c.36.17.5.38.41.59l.02.03-.03-.01v.02l-.02-.04c-.36-.17-.5-.38-.41-.59v-.03l.03.01v-.01.03z" id="az"/><path d="M781.86 429.34c-.17.14-.67.45-1.38.06h-.09l.05-.03-.05-.02h.09c.69-.46 1.2-.2 1.38-.07h.06l-.03.03.03.02-.06.01z" id="aA"/><path d="M776.38 429.46c-.1-.33.04-.67.4-.95l.03-.06v.03l.04-.02-.03.06c.1.33-.04.67-.4.95l-.02.04v-.02l-.03.02.01-.05z" id="aB"/><path d="M781.1 427.64c-.35-.09-.66-.3-.85-.61l-.06-.04.04.01-.03-.03.06.04c.35.08.66.3.86.6l.04.03h-.03l.01.03-.04-.03z" id="aC"/><path d="M783.1 426.43c-.29.1-.6-.05-.84-.4l-.06-.04h.03l-.02-.03.05.03c.3-.1.6.05.85.4l.04.03h-.02l.02.03-.05-.02z" id="aD"/><path d="M779.62 423.65c-.35-.13-.48-.3-.38-.47v-.03l.04.02v-.02l.02.03c.35.14.48.3.38.47v.02h-.03l-.03-.02z" id="aE"/><path d="M779.23 420.75c-.18.43-.53.77-.96.95l-.07.06.02-.04-.04.02.06-.06c.19-.43.53-.78.97-.96l.04-.04-.01.03h.03l-.04.04z" id="aF"/><path d="M759.52 423.92c.08-.28.27-.52.53-.66l.04-.04-.01.03.02-.02-.03.05a1.1 1.1 0 0 1-.54.65l-.02.03v-.02l-.02.01.03-.03z" id="aG"/><path d="M761.3 425.9c-.3-.34-.3-.73 0-1.08v-.07l.02.04.03-.04v.07c.3.35.3.74 0 1.08v.06l-.03-.03-.03.03.01-.06z" id="aH"/><path d="M762.28 426.41a.8.8 0 0 1 .44-.43l.03-.03-.01.02h.02l-.03.03a.8.8 0 0 1-.44.43l-.02.02v-.01h-.01l.02-.03z" id="aI"/><path d="M760.52 428.28c.2-.3.44-.46.69-.42l.05-.03-.02.03h.02l-.04.03c-.2.3-.44.45-.7.42l-.02.02v-.02h-.01l.03-.03z" id="aJ"/><path d="M756.75 428.03c.28-.07.57.08.8.42l.05.03h-.03l.02.03-.05-.03c-.28.08-.57-.07-.8-.4l-.03-.03h.02l-.02-.03.04.01z" id="aK"/><path d="M759.48 430.6c.21-.1.43.04.6.4l.04.03h-.02l.02.03-.04-.02c-.21.1-.43-.04-.6-.4h-.03.01v-.03l.02-.01z" id="aL"/><path d="M759.83 431c.01.22-.14.42-.42.58l-.03.04v-.03l-.03.02.03-.04c0-.21.15-.42.43-.57l.02-.03v.02l.02-.02-.02.03z" id="aM"/><path d="M762.37 431.8c.01.29-.14.57-.43.78l-.03.05v-.03l-.03.03.03-.05c-.02-.3.13-.57.43-.78l.02-.04v.02l.02-.01-.01.03z" id="aN"/><path d="M756.57 433.12c.33-.07.66.08.93.42l.05.03h-.03l.03.03-.06-.03c-.33.07-.66-.08-.93-.42l-.04-.02h.02l-.01-.03.04.02z" id="aO"/><path d="M757.06 435.88c-.1-.19-.26-.74.26-1.45l.02-.09c0 .02 0 .03.02.05 0-.02.02-.03.03-.05l-.02.1c.25.77-.11 1.28-.26 1.44l-.02.07-.02-.03-.03.03.02-.07z" id="aP"/><path d="M756.8 437.38c.28-.36.64-.5.98-.41l.07-.03-.03.03h.03l-.06.03c-.29.36-.64.5-.99.41l-.04.02.01-.03h-.02l.05-.02z" id="aQ"/><path d="M760.09 438.83c-.01-.45.16-.89.47-1.21l.03-.08v.05l.03-.04-.03.08c0 .45-.16.88-.47 1.2l-.03.06v-.03l-.02.02.02-.05z" id="aR"/><path d="M757.2 440.28c-.06-.18-.16-.7.37-1.32l.02-.09v.05l.04-.04-.03.08c.13.46 0 .94-.36 1.32l-.02.06-.02-.03-.03.03.03-.06z" id="aS"/><path d="M755.9 440.53c.1-.2.26-.36.46-.43l.03-.03-.01.02h.02l-.03.03a.8.8 0 0 1-.46.43l-.02.02v-.02h-.01l.02-.02z" id="aT"/><path d="M756.45 442.71c.17-.15.68-.5 1.41-.16h.1l-.05.03.05.02h-.1c-.7.5-1.22.27-1.4.16h-.07l.03-.03a.2.2 0 0 1-.03-.02h.06z" id="aU"/><path d="M755.2 443.34c.13.14.47.6.42 1.36l.03.09-.03-.04v.05l-.03-.09a1.83 1.83 0 0 1-.42-1.36l-.02-.06.03.02v-.03l.02.06z" id="aV"/><path d="M759.87 446.15c.34-.36.76-.5 1.16-.38l.08-.03-.04.04h.04l-.07.02c-.34.36-.76.5-1.16.39l-.05.01.02-.03-.03-.01.05-.01z" id="aW"/><path d="M758.74 448.46c-.37-.16-.5-.36-.35-.55v-.04l.04.02v-.02.04c.36.16.49.35.34.54v.02h-.04l.01-.01z" id="aX"/><path d="M761.34 447.4c.18.04.34.2.46.45l.02.03h-.01v.02l-.02-.03c-.18-.03-.34-.2-.46-.44l-.02-.02h.01v-.02l.02.01z" id="aY"/><path d="M760.2 448.7c.19.06.69.27 1.05.95l.07.06-.04-.02.02.04-.07-.06a1.85 1.85 0 0 1-1.05-.94l-.05-.05.03.01v-.03l.04.04z" id="aZ"/><path d="M774.33 423.48a1.2 1.2 0 0 1-.95-.43l-.06-.03h.04l-.03-.03.06.03c.35-.02.7.14.95.43l.05.02h-.03l.02.02-.05-.01z" id="ba"/><path d="M773.71 421.93c-.24.3-.6.5-.98.54l-.07.03.03-.03h-.04l.06-.03c.25-.3.6-.5.99-.54l.04-.02-.01.02h.03l-.05.03z" id="bb"/><path d="M773.3 420.25c-.2.25-.5.4-.8.43l-.06.03.02-.02h-.03l.05-.03c.2-.25.5-.4.8-.43l.05-.02-.02.02h.03l-.04.02z" id="bc"/><path d="M773.47 419.73c-.16.14-.63.48-1.45.43l-.09.02.04-.03h-.05l.1-.03a1.97 1.97 0 0 1 1.44-.42l.06-.02-.02.03h.03l-.06.02z" id="bd"/><path d="M769.44 419.54c-.35-.23-.5-.51-.42-.8l-.03-.05.03.03v-.03l.03.05c.35.23.5.51.42.8l.02.03-.03-.01v.02l-.02-.04z" id="be"/><path d="M771.55 415.9c.28.19.48.48.54.82l.04.05-.03-.02.01.03-.03-.05a1.3 1.3 0 0 1-.56-.82l-.02-.04.02.01v-.02l.03.04z" id="bf"/><path d="M767.82 415.83c-.4-.06-.77-.29-1.02-.62l-.06-.05.04.01-.02-.03.06.04c.4.07.77.3 1.02.62l.05.03h-.03l.01.03-.05-.03z" id="bg"/><path d="M763.49 454.71c.14.16.6.59 1.47.64l.1.04-.05-.04h.06l-.1-.04a2.11 2.11 0 0 0-1.46-.64l-.07-.02.02.03h-.04l.07.03z" id="bh"/><path d="M765.39 454.3c.3-.31.45-.73.44-1.16l.03-.08-.03.03v-.04l-.03.08c-.3.31-.45.73-.44 1.17l-.02.05.02-.02v.03l.03-.06z" id="bi"/><path d="M764.66 452.1c.04.18.22.71.88 1.12l.06.08-.02-.05.05.02-.06-.07a1.89 1.89 0 0 0-.89-1.13l-.04-.05v.04l-.03-.02.05.06z" id="bj"/><path d="M767.07 452.71a.78.78 0 0 0-.44.44l-.03.03h.02v.01l.03-.03c.21-.1.37-.25.43-.44l.02-.02h-.01v-.01l-.02.02z" id="bk"/><path d="M766.81 452.27c.3.28.69.43 1.09.42l.07.03-.03-.03h.04l-.07-.02c-.3-.29-.69-.44-1.1-.43l-.04-.02.02.02h-.03l.05.03z" id="bl"/><path d="M767.47 444c.22.03.84.05 1.53-.47l.1-.03h-.05a.52.52 0 0 0 .04-.03l-.1.03a2.1 2.1 0 0 0-1.53.47l-.07.02h.04l-.03.03.07-.02z" id="bm"/><path d="M768.64 442.47c.02-.44-.13-.86-.42-1.18l-.03-.08v.04l-.03-.03.03.08c-.02.43.13.85.43 1.18l.02.05v-.03l.02.02-.02-.05z" id="bn"/><path d="M766.66 441.28c.16.15.64.53 1.4.38l.1.02-.04-.03h.05l-.1-.03c-.66-.54-1.2-.44-1.4-.38l-.06-.02.02.03-.03.02.06.01z" id="bo"/><path d="M768.86 440.26c-.2.16-.17.33.1.48v.03-.02.02-.03c.18-.16.15-.33-.1-.48v-.02.01-.01.02z" id="bp"/><path d="M768.4 440.03c.41.03.8-.12 1.11-.42l.07-.03h-.04l.03-.03-.07.03c-.4-.03-.8.13-1.1.43l-.05.02h.03l-.02.02.04-.02z" id="bq"/><path d="M765.37 449.17c.2 0 .74-.07 1.27-.62l.08-.04h-.05l.04-.03-.09.04c-.75.08-1.14.46-1.26.61l-.06.03h.03l-.01.03.05-.02z" id="br"/><path d="M767.53 447.93c.34.16.7.04 1-.32l.06-.02h-.03l.03-.04-.07.03c-.34-.16-.7-.04-1 .32h-.04l.02.02-.02.03.05-.02z" id="bs"/><path d="M771.06 448.9c-.25.18-.42.44-.48.74l-.03.05.02-.02v.03l.04-.05c.25-.17.42-.43.48-.73l.02-.04-.02.01v-.02l-.03.03z" id="bt"/><path d="M772.3 449.55c-.32.27-.36.57-.1.85v.05s0-.02.03-.03l.03.03v-.05c.32-.27.36-.57.1-.85v-.04l-.03.02-.03-.02v.04z" id="bu"/><path d="M772.25 447.84c-.12.22.02.44.38.62l.02.04v-.02l.04.02-.02-.04c.12-.22-.02-.44-.38-.62v-.03.02l-.03-.02-.01.03z" id="bv"/><path d="M774.97 448.4c-.3.3-.46.72-.45 1.15l-.03.08.03-.04v.05l.03-.08c.3-.3.46-.73.45-1.16l.02-.05-.03.02v-.03l-.02.06z" id="bw"/><path d="M772.09 445.28c-.2.27-.12.56.25.81v.03l.03.02v-.05c.2-.27.12-.56-.25-.81v-.04.02l-.03-.02v.04z" id="bx"/><path d="M775.9 445.3c.29.34.7.55 1.15.58l.08.04-.03-.04h.04l-.07-.03a1.7 1.7 0 0 0-1.16-.57l-.06-.03.02.03h-.03l.06.02z" id="by"/><path d="M775.62 442.56c.1.16.44.58 1.17.74l.07.05-.03-.04.05.01-.08-.05c-.45-.59-.97-.71-1.16-.74l-.05-.03.01.03h-.03l.05.03z" id="bz"/><path d="M771.9 441.44c.2.33.45.48.7.42l.04.03-.02-.03h.02l-.04-.03c-.2-.32-.44-.48-.68-.42l-.03-.02v.03h-.01l.02.02z" id="bA"/><path d="M772 440.39c-.36.23-.49.53-.36.8l-.03.06.03-.03v.03l.03-.05c.35-.24.48-.53.36-.81v-.04l-.03.02v-.02.04z" id="bB"/><path d="M775.08 439.4c-.02.45.14.88.44 1.2l.03.08v-.05l.03.04-.03-.08c.01-.44-.15-.87-.45-1.2l-.02-.05v.03l-.02-.02.02.05z" id="bC"/><path d="M773.96 438.77c.01.33.17.64.44.87l.02.05v-.03l.03.02-.03-.05c0-.33-.16-.64-.43-.87l-.02-.04v.02l-.02-.01.01.04z" id="bD"/><path d="M775.67 437.07c.15.4.45.73.84.91l.05.06-.01-.04.04.02-.06-.06c-.15-.4-.45-.73-.84-.9l-.04-.05v.03h-.02l.04.03z" id="bE"/><path d="M771.86 436.06c-.13.4 0 .81.37 1.15l.02.08v-.04l.04.03-.03-.07c.13-.4 0-.82-.37-1.16l-.01-.05-.02.03-.03-.02.03.05z" id="bF"/><path d="M772.39 435.54c.02.42.2.82.51 1.1l.03.08v-.05l.03.03-.03-.07a1.6 1.6 0 0 0-.51-1.1l-.03-.05v.03l-.02-.02.02.05z" id="bG"/><path d="M773.98 434.37c-.04.38.11.76.43 1.06l.03.07v-.04l.03.03-.03-.07c.05-.38-.1-.77-.43-1.06l-.02-.05v.03l-.02-.02.01.05z" id="bH"/><path d="M774.88 433.06c.39.11.79-.03 1.11-.39l.08-.03h-.04l.03-.03-.07.03c-.4-.11-.8.03-1.12.4h-.05l.03.02-.02.03.05-.03z" id="bI"/><path d="M772.89 431.34c.24.34.52.42.78.2h.05l-.03-.03h.03-.05c-.24-.35-.52-.42-.78-.2h-.04l.02.02h-.02l.04.01z" id="bJ"/><path d="M772 429.26c.25.4.64.67 1.09.78l.07.04-.03-.03.04.01-.07-.05a1.74 1.74 0 0 0-1.07-.77l-.05-.04.01.03h-.03l.04.03z" id="bK"/><path d="M773.32 428.08a1 1 0 0 0 .62-.45l.04-.03h-.03l.02-.02-.04.03c-.26.07-.48.23-.62.46l-.03.02h.02v.01l.02-.02z" id="bL"/><path d="M775.45 426.26c.12.28.34.5.62.62l.04.04-.01-.03.02.01-.04-.04c-.11-.27-.33-.5-.61-.61l-.03-.03v.02h-.02l.03.02z" id="bM"/><path d="M775.15 423.72c.05.36.23.68.51.9l.04.05v-.03l.02.02-.03-.06a1.36 1.36 0 0 0-.51-.89l-.03-.04v.03l-.02-.02.02.04z" id="bN"/><path d="M776.2 424.2c.35.05.71-.1.99-.43l.06-.03h-.03l.03-.03-.07.03c-.36-.05-.71.1-1 .42l-.04.02h.02l-.01.03.05-.01z" id="bO"/><path d="M776.31 421.1c.22.03.44-.13.6-.43l.04-.03h-.02l.02-.03-.04.03c-.22-.03-.44.12-.6.43l-.03.02h.02l-.01.02.02-.01z" id="bP"/><path d="M779.58 422.31c-.13.15-.48.6-.46 1.4l-.03.1.03-.05v.05l.03-.09c.5-.63.49-1.2.47-1.4l.02-.06-.03.03v-.04l-.03.06z" id="bQ"/><path d="M760.83 449.7c.22-.1.37-.26.43-.44l.03-.03h-.02v-.01l-.03.03a.79.79 0 0 0-.43.44l-.02.02h.02v.02l.02-.03z" id="bR"/><path d="M766.04 446.55c.07-.24-.08-.49-.42-.68l-.03-.05v.02l-.03-.01.03.04c-.07.25.08.5.42.69l.02.03v-.02l.03.01-.02-.03z" id="bS"/><path d="M761.68 444.62c-.36.23-.47.5-.28.77v.05l.03-.02v.02-.05c.37-.23.47-.51.3-.77v-.04l-.04.02v-.02l-.01.04z" id="bT"/><path d="M762.26 443.89c.33-.32.48-.73.42-1.13l.03-.07-.03.03a.3.3 0 0 0 0-.04l-.03.07a1.3 1.3 0 0 0-.42 1.13l-.02.05.03-.02v.03l.02-.05z" id="bU"/><path d="M760.76 442.12c.36-.08.69-.3.9-.62l.05-.04-.04.01.02-.03-.05.04c-.37.08-.7.3-.9.62l-.04.03h.03l-.01.02.04-.03z" id="bV"/><path d="M765.4 440.99c-.21.1-.37.26-.42.44l-.03.02h.02v.01l.03-.03c.22-.1.38-.26.43-.44l.02-.02h-.02v-.01l-.03.03z" id="bW"/><path d="M762.8 439.17a.86.86 0 0 0-.43.5l-.03.04.02-.01v.02l.03-.04c.21-.1.37-.29.43-.5l.02-.02h-.02v-.02l-.02.03z" id="bX"/><path d="M763.39 436.53c-.15.13-.53.54-.58 1.31l-.04.09a.42.42 0 0 0 .03-.04v.05l.04-.08c.54-.56.58-1.12.58-1.32l.03-.06a.28.28 0 0 0-.03.03v-.04l-.03.06z" id="bY"/><path d="M765.7 436.59a.86.86 0 0 0-.43.56l-.03.03h.02v.01l.03-.03a.85.85 0 0 0 .43-.57l.02-.02h-.02v-.01l-.02.03z" id="bZ"/><path d="M767.62 437.28c.4-.16.72-.47.9-.86l.06-.06-.04.02.02-.04-.06.06c-.4.15-.72.46-.9.85l-.04.04h.03l-.01.03.04-.04z" id="ca"/><path d="M767.76 434.4c.15.16.61.57 1.48.6l.1.05-.05-.04h.06l-.1-.04a2.1 2.1 0 0 0-1.48-.61l-.07-.03.03.03h-.04l.07.04z" id="cb"/><path d="M765.66 432.9c.15-.17.53-.7.38-1.55l.02-.1a.52.52 0 0 0-.03.05l-.01-.06-.03.1c-.53.74-.43 1.35-.37 1.56l-.02.07.03-.03.02.04.01-.08z" id="cc"/><path d="M771.35 430.23c-.15.16-.52.66-.38 1.48l-.03.1.04-.05v.05l.03-.1c.53-.68.44-1.27.39-1.47l.02-.07a.39.39 0 0 0-.03.03l-.02-.04-.02.07z" id="cd"/><path d="M766.06 429.18c.32-.04.6-.2.8-.45l.06-.04h-.03l.02-.02-.06.03c-.31.04-.6.2-.8.46l-.04.02h.02v.02l.03-.02z" id="ce"/><path d="M769.7 427.84c.03.41.23.8.55 1.06l.04.07a.4.4 0 0 0 0-.04l.03.03-.04-.07c-.04-.41-.23-.8-.55-1.06l-.03-.05v.03l-.02-.02.02.05z" id="cf"/><path d="M766.43 426.68c-.33.28-.48.62-.41.97l-.03.06.03-.03v.04l.03-.07c.34-.27.48-.62.41-.96l.02-.04-.03.01v-.02l-.02.04z" id="cg"/><path d="M766.54 425.05c.2.26.48.41.77.43l.05.03-.02-.03h.03l-.05-.02c-.2-.26-.47-.41-.77-.43l-.03-.02.01.02h-.02l.03.02z" id="ch"/><path d="M771.02 425.15c.03.23.18.45.44.6l.03.05v-.02l.02.01-.03-.04c-.02-.23-.18-.46-.43-.61l-.02-.03v.02l-.02-.01.01.03z" id="ci"/><path d="M768.19 422.14a1 1 0 0 0 .66.43l.05.03-.02-.02h.02l-.04-.03a1 1 0 0 0-.66-.43l-.03-.02v.02h-.01l.03.02z" id="cj"/><path d="M773.39 423.04c.3-.15.46-.35.4-.55l.03-.04-.03.02v-.02l-.02.04c-.31.15-.46.35-.41.55l-.02.02h.03l.02-.02z" id="ck"/><path d="M769.13 418.96c-.24.14-.4.37-.47.64l-.03.04.02-.02v.03l.03-.04c.23-.14.4-.37.46-.64l.02-.03h-.02v-.01l-.01.03z" id="cl"/><path d="M758.62 447.37c.19.27.47.46.8.52l.05.03-.02-.02h.03l-.05-.03a1.25 1.25 0 0 0-.81-.52l-.04-.02.01.02h-.02l.05.02z" id="cm"/><path d="M756.88 446.53c.07.3.25.54.5.7l.04.04-.01-.03.02.02-.03-.05a1.12 1.12 0 0 0-.5-.69l-.03-.03v.02h-.02l.03.02z" id="cn"/><path d="M758.23 444.77c0 .46.17.9.49 1.23l.03.08v-.05l.03.03-.03-.08c0-.46-.17-.9-.5-1.22l-.02-.06a.2.2 0 0 0 0 .03l-.02-.02.02.06z" id="co"/><path d="M760.58 443.28c-.27.12-.42.28-.43.45l-.03.03.03-.02v.02l.02-.03c.27-.12.43-.28.43-.44v-.03l-.02.01v-.01.02z" id="cp"/><path d="M755.43 441.88c.29.16.59.04.84-.33l.05-.02h-.03l.03-.03-.06.02c-.28-.16-.58-.04-.83.33h-.04l.02.01-.02.03.04-.01z" id="cq"/><path d="M755.7 439.77c-.2.38-.13.8.22 1.15l.02.08.01-.04.04.04-.02-.08c.21-.39.14-.8-.21-1.16v-.05l-.03.03-.02-.03-.01.06z" id="cr"/><path d="M758.37 438.97c.05.3.23.57.48.75l.03.04v-.03l.02.02-.03-.05c-.05-.3-.23-.57-.48-.74l-.02-.04v.02h-.02l.02.03z" id="cs"/><path d="M757.87 438.44c.47 0 .92-.18 1.25-.5l.08-.04h-.05l.04-.03-.08.03c-.47 0-.91.19-1.24.51l-.06.03h.03l-.02.02.05-.02z" id="ct"/><path d="M755.67 437.68c.15-.18.48-.7.12-1.45v-.1l-.03.05c0-.02-.02-.03-.03-.05v.1c-.48.72-.23 1.26-.11 1.44v.07a.29.29 0 0 0 .03-.03l.02.03v-.06z" id="cu"/><path d="M757.13 436.05c.15-.19.52-.75.32-1.62l.02-.1-.03.05-.01-.06-.03.1c-.53.78-.4 1.4-.32 1.62l-.01.08.03-.03.01.03.02-.07z" id="cv"/><path d="M757.52 434.7c.3-.07.55-.25.7-.5l.05-.03h-.02l.01-.02-.04.03c-.3.07-.55.25-.7.5l-.04.03h.02v.02l.02-.03z" id="cw"/><path d="M759.4 434.5c.15-.16.54-.61.55-1.45l.04-.1-.04.04v-.05l-.03.1a2.02 2.02 0 0 0-.55 1.44l-.03.07.03-.03v.04l.03-.06z" id="cx"/><path d="M756.24 431.53c.18.24.44.4.74.45l.05.03-.02-.02h.03l-.05-.03c-.18-.24-.44-.4-.74-.45l-.03-.02.01.02h-.02l.03.02z" id="cy"/><path d="M757.14 428.92c-.1.31.06.63.42.88l.02.06v-.03l.04.03-.03-.06c.09-.31-.06-.63-.41-.88l-.03-.04v.02l-.02-.01.01.03z" id="cz"/><path d="M759.81 430.12a2.1 2.1 0 0 0 1.38-.8l.09-.05-.06.01.04-.04-.1.05c-.84.15-1.25.62-1.37.8l-.06.03h.04l-.02.04.06-.04z" id="cA"/><path d="M763.16 430.03c-.24.13-.39.32-.42.53l-.03.03.02-.01v.02l.04-.03c.23-.13.38-.32.42-.53l.02-.02h-.02v-.01l-.03.02z" id="cB"/><path d="M759.45 426.04c.14.13.56.45 1.31.42l.09.03-.04-.03h.05l-.09-.03a1.8 1.8 0 0 0-1.31-.42l-.06-.02.02.02h-.03l.06.03z" id="cC"/><path d="M764.78 427.79c.33-.3.38-.66.13-.98v-.06l-.03.03-.02-.03v.06c-.33.3-.38.66-.13.98v.04l.03-.02.02.02v-.04z" id="cD"/><path d="M760.62 424.8c.36.03.72-.12 1-.42l.06-.03h-.04a.4.4 0 0 0 .03-.03l-.06.03c-.37-.03-.72.13-1 .43l-.04.02h.03l-.02.02.04-.02z" id="cE"/><path d="M759.11 422.9c.28.33.59.37.88.11h.05l-.02-.03.03-.02h-.06c-.28-.33-.6-.37-.88-.11h-.04l.02.03-.02.02h.04z" id="cF"/><path d="M763.46 421.41c.24-.11.4-.27.43-.45l.03-.02h-.02v-.01l-.03.03c-.24.1-.4.27-.43.44l-.02.02h.02v.01l.02-.02z" id="cG"/><path d="M764.35 418.62c.06.47.3.9.66 1.19l.05.07v-.04l.03.03-.04-.08c-.06-.46-.3-.9-.66-1.18l-.03-.06v.03l-.03-.01.02.05z" id="cH"/><path d="M782.5 427.18a1 1 0 0 0-.42-.78l-.03-.05v.03l-.03-.02.03.05c0 .3.16.57.43.78l.02.04v-.02l.02.01-.02-.04z" id="cI"/><path d="M780.25 428.62c.32-.29.47-.66.42-1.04l.03-.06-.03.03v-.04l-.03.07c-.32.3-.47.66-.42 1.04l-.02.05.03-.03v.03l.02-.05z" id="cJ"/><path d="M779.22 428.71c-.05-.18-.2-.34-.43-.44l-.03-.03v.02l-.02-.01.03.03c.05.18.2.34.43.44l.02.02v-.01h.02l-.02-.02z" id="cK"/><path d="M780.25 430.9a.95.95 0 0 0-.6-.42l-.03-.03.01.02h-.02l.04.03c.13.22.35.37.6.43l.02.02v-.02h.01l-.03-.03z" id="cL"/><path d="M783.89 432.05c-.26-.31-.56-.33-.82-.06H783l.03.03-.03.03h.05c.27.31.56.33.83.06h.04l-.01-.03.01-.02-.03-.01z" id="cM"/><path d="M780.56 433.8c-.2-.32-.42-.37-.62-.13h-.04l.02.03h-.02.04c.2.32.41.36.62.13h.03l-.02-.03h.02-.03z" id="cN"/><path d="M780.42 433.96c-.24.2-.17.43.2.62v.02l.02.02v-.04c.23-.2.16-.43-.2-.62v-.03.01h-.03l.01.02z" id="cO"/><path d="M777.7 434c-.24.27-.19.57.15.83v.05l.02-.03c0 .01 0 .02.03.03v-.06c.24-.27.19-.56-.15-.82v-.04a.08.08 0 0 0-.02.02l-.03-.02v.04z" id="cP"/><path d="M782.65 436.98c-.3-.32-.66-.33-.97-.05h-.06l.03.03-.03.02h.06c.3.32.66.33.97.05h.04l-.02-.03.02-.03-.04.01z" id="cQ"/><path d="M781.46 439.37c.16-.17.53-.66.32-1.44l.02-.1-.04.05-.01-.05-.02.1c-.53.68-.39 1.24-.32 1.43l-.01.07.03-.03c0 .01 0 .02.02.03l.01-.06z" id="cR"/><path d="M781.28 440.7a1.34 1.34 0 0 0-.88-.5l-.06-.04.02.03h-.03l.06.03c.21.28.53.46.88.5l.04.03-.01-.02h.02l-.04-.03z" id="cS"/><path d="M777.81 441.33c.21-.42.15-.89-.18-1.29l-.02-.08-.02.04-.03-.04v.09c-.21.43-.14.89.19 1.29v.06l.02-.03.03.02.01-.06z" id="cT"/><path d="M780.11 443.55c.36-.41.43-.9.2-1.34l.01-.09-.03.05-.02-.05v.09c-.36.41-.43.9-.2 1.34v.06l.03-.03.02.03-.01-.06z" id="cU"/><path d="M781.33 444.09a.81.81 0 0 0-.43-.49l-.03-.03v.02l-.02-.01.03.03c.05.2.21.37.43.48l.02.03v-.02h.02l-.02-.01z" id="cV"/><path d="M780.1 445.98a1.87 1.87 0 0 0-1.33-.5l-.09-.03.04.03h-.05l.09.03c.58.5 1.13.51 1.32.5l.06.02-.02-.03h.03l-.05-.02z" id="cW"/><path d="M781.1 447.05c-.17.1-.6.43-.78 1.18l-.05.08.04-.03-.01.05.05-.08c.61-.46.75-1 .78-1.19l.03-.05a.16.16 0 0 0-.03.02v-.04l-.03.06z" id="cX"/><path d="M775.86 448.28a1.56 1.56 0 0 0-1.05-.56l-.07-.04.03.03h-.04l.07.03c.26.32.63.52 1.04.56l.05.03-.02-.03h.03l-.04-.02z" id="cY"/><path d="M776.56 451.04c.25-.12.4-.3.43-.5l.03-.02H777v-.01l-.03.03c-.25.13-.4.3-.43.5l-.02.02h.02v.01l.02-.03z" id="cZ"/><path d="M774.06 449.25c-.18-.12-.36.03-.5.4h-.04.02l-.02.03.04-.03c.17.12.35-.02.5-.4h.03-.01v-.02l-.02.02z" id="da"/><path d="M774.79 450.78c-.2 0-.74.07-1.28.61l-.08.04h.05l-.04.04.09-.04a1.86 1.86 0 0 0 1.27-.61l.06-.03h-.03l.02-.03-.06.02z" id="db"/><path d="M768.3 422.7c.34.25.7.2 1.02-.13h.07l-.04-.02.03-.03h-.06c-.33-.24-.7-.19-1.01.14h-.05l.02.03-.02.02.04-.01z" id="dc"/><path d="M769.3 421.3c.16.36.45.65.8.8l.06.04-.02-.03.03.01-.05-.05a1.47 1.47 0 0 0-.8-.78l-.03-.04v.03l-.02-.01.03.03z" id="dd"/><path d="M770.19 419.8c.13.29.36.51.66.62l.04.04-.01-.03.02.01-.04-.04c-.13-.28-.37-.5-.66-.61l-.03-.03v.02h-.02l.04.02z" id="de"/><path d="M770.18 419.26c.1.17.47.63 1.26.8l.09.06-.04-.04.06.01-.09-.05a1.98 1.98 0 0 0-1.26-.81l-.06-.04.02.03h-.04l.06.04z" id="df"/><path d="M774.3 420.27c.24-.17.39-.42.43-.7l.03-.05-.02.02v-.03l-.03.05c-.23.17-.39.42-.43.7l-.02.03h.02v.01l.02-.03z" id="dg"/><path d="M773.09 416.12c-.32.1-.6.34-.75.64l-.05.04.03-.01-.01.03.04-.04c.33-.1.6-.34.75-.64l.04-.03h-.03l.01-.02-.03.03z" id="dh"/><path d="M776.7 417.22c.4.07.81-.08 1.14-.42l.08-.03h-.04l.03-.03-.08.03c-.4-.07-.82.08-1.15.42l-.05.02h.03l-.02.03.06-.02z" id="di"/><path d="M757.39 438.1l-1.46 10.23c-.12.84.46 1.62 1.3 1.74l20.88 2.98c.84.12 1.62-.46 1.74-1.3l1.47-10.23-23.93-3.42z" id="dj"/><path d="M781.06 441.96l-23.92-3.38.09-.64 23.92 3.38-.09.64z" id="dk"/><path d="M763.52 447.03l9.42 1.34.66-4.6-9.4-1.35-.68 4.61zm10.3-2.98l-9.91-1.41.73-5.12 9.9 1.42-.72 5.11z" id="dl"/><path d="M732.16 449.22s10.22-2.97 11.48-6.06c1.25-3.09-1.78-4.95-1.78-4.95l-12.41-4.15-2.33 6.25 5.04 8.91z" id="dm"/><path d="M720.55 416.78l1.76 10.08 5.76 3.36 6.97-11.08s1.16-3.36-1.77-4.96c-2.94-1.6-12.72 2.6-12.72 2.6z" id="dn"/><path d="M715.59 425.97l-.04.01 6.63 18.52a7.8 7.8 0 1 0 7.27-10.44l-1.4-3.92a7.8 7.8 0 1 0-12.46-4.17z" id="do"/><path d="M729.95 421.63a7.8 7.8 0 0 1-2.47 8.71l1.4 3.92a7.8 7.8 0 0 1 3 15.05l.28-.1a7.8 7.8 0 0 0-2.71-15.15l-1.4-3.92a7.8 7.8 0 0 0-7.52-13.43l-.29.1a7.8 7.8 0 0 1 9.7 4.82h.01z" id="dp"/><path d="M720.77 418.6a5.85 5.85 0 1 1 3.94 11.02 5.85 5.85 0 0 1-3.94-11.02z" id="dq"/><path d="M717.4 426.03a5.85 5.85 0 0 1 3.45-7.45l-.08.03a5.85 5.85 0 1 0 3.94 11.01l.09-.03a5.85 5.85 0 0 1-7.4-3.56z" id="dr"/><path d="M727.16 436.44a5.85 5.85 0 1 1 3.94 11.02 5.85 5.85 0 0 1-3.94-11.02z" id="ds"/><path d="M723.8 443.87a5.85 5.85 0 0 1 3.45-7.45l-.1.03a5.85 5.85 0 1 0 3.95 11.02l.09-.04a5.85 5.85 0 0 1-7.4-3.56h.01z" id="dt"/><path d="M725.55 430.64c.33-.12.69.05.8.38l1.21 3.38a.63.63 0 1 1-1.19.43l-1.2-3.39a.63.63 0 0 1 .38-.8z" id="du"/><path d="M726.5 434.77l-1.2-3.37c-.1-.3.03-.64.32-.78a.63.63 0 0 0-.45.82l1.2 3.38a.63.63 0 0 0 .88.35.63.63 0 0 1-.74-.4h-.01z" id="dv"/><path d="M726.44 433.05a.3.3 0 0 1 .37.17l.42 1.15a.3.3 0 0 1-.18.38.3.3 0 0 1-.38-.18l-.41-1.15a.3.3 0 0 1 .18-.37z" id="dw"/><path d="M725.72 431.06a.3.3 0 0 1 .37.17l.42 1.15a.3.3 0 0 1-.18.38.3.3 0 0 1-.38-.18l-.41-1.15a.3.3 0 0 1 .18-.37z" id="dx"/><path d="M719.57 423.8a1.52 1.52 0 1 1 1.02 2.86 1.52 1.52 0 0 1-1.02-2.86z" id="dy"/><path d="M721.16 424.84c.26.73-.06 1.53-.74 1.87.06 0 .12-.03.18-.05a1.52 1.52 0 1 0-1.2-2.79c.75-.16 1.5.25 1.76.97z" id="dz"/><path d="M724.58 421.8a1.52 1.52 0 1 1 1.02 2.87 1.52 1.52 0 0 1-1.02-2.86v-.01z" id="dA"/><path d="M726.17 422.85c.26.72-.06 1.52-.74 1.86.06 0 .12-.03.18-.05a1.52 1.52 0 1 0-1.2-2.78c.75-.17 1.5.25 1.76.97z" id="dB"/><path d="M721.09 420.23a1.52 1.52 0 1 1 1.02 2.86 1.52 1.52 0 0 1-1.02-2.86z" id="dC"/><path d="M722.68 421.28c.26.72-.06 1.52-.74 1.86.06 0 .12-.03.18-.05a1.52 1.52 0 1 0-1.2-2.78c.75-.17 1.5.24 1.76.97z" id="dD"/><path d="M723.04 425.39a1.52 1.52 0 1 1 1.02 2.86 1.52 1.52 0 0 1-1.02-2.86z" id="dE"/><path d="M724.63 426.44c.26.72-.06 1.52-.74 1.86.06 0 .12-.03.18-.05a1.52 1.52 0 1 0-1.2-2.78c.75-.17 1.5.24 1.76.97z" id="dF"/><path d="M731.58 444.7a.8.8 0 0 1-.48 1.03l-.63.22a.8.8 0 0 1-1.02-.48l-2.24-6.27a.8.8 0 0 1 .48-1.02l.62-.22a.8.8 0 0 1 1.03.48l2.24 6.26z" id="dG"/><path d="M726.75 439.37l.74 2.07-1.82.65a.8.8 0 0 0-.48 1.02l.22.62a.8.8 0 0 0 1.02.49l1.82-.65.74 2.06a.8.8 0 0 0 1.02.49l.63-.23a.8.8 0 0 0 .48-1.02l-.74-2.06 2.32-.83a.8.8 0 0 0 .48-1.03l-.22-.62a.8.8 0 0 0-1.02-.48l-2.32.83-.74-2.07a.8.8 0 0 0-1.03-.48l-.62.22a.8.8 0 0 0-.48 1.02z" id="dH"/><path d="M732.43 440.52l.23.62a.8.8 0 0 1-.49 1.03l.53-.2a.8.8 0 0 0 .48-1.02l-.22-.62a.8.8 0 0 0-1.02-.48l-.53.19a.8.8 0 0 1 1.02.48z" id="dI"/><path d="M726.75 439.37l.74 2.07-1.81.65a.75.75 0 0 0-.15.07c1.36.29 3.22.67 4.98 1l-.13-.35 2.32-.83a.8.8 0 0 0 .49-1.03l-.22-.62a.8.8 0 0 0-1.03-.48l-2.32.83-.74-2.07a.8.8 0 0 0-1.02-.48l-.62.22a.8.8 0 0 0-.49 1.02z" id="dJ"/><path d="M725.68 442.1a.75.75 0 0 0-.15.06c1.36.3 3.22.68 4.98 1l-.06-.18-4.6-.95-.17.07z" id="dK"/><path d="M725.91 443.24l.55.18-.12-.34-.12-.33-.31.49z" id="dL"/><path d="M732.46 440.9l-.55-.18.12.33.12.34.31-.5v.01z" id="dM"/><path d="M730.19 445.4l.18-.55-.34.12-.33.12.49.31z" id="dN"/><path d="M727.84 438.86l-.18.55.33-.12.34-.11-.5-.32h.01z" id="dO"/><path d="M751.95 462.54c.15.13.18.36.05.52l-1.65 2a.37.37 0 0 1-.53.04.37.37 0 0 1-.05-.52l1.66-2a.37.37 0 0 1 .52-.04z" id="dP"/><path d="M750.5 464.07a.11.11 0 0 1 0 .15l-.48.6a.11.11 0 0 1-.16.01.11.11 0 0 1-.02-.15l.5-.6a.11.11 0 0 1 .15-.01h.01z" id="dQ"/><path d="M765.87 448.35l-12.07 14.61-1.9-.43-.72-1.73 12.26-14.84 2.43 2.39z" id="dR"/><path d="M760.3 454.23l.1.08-.33.4-.1-.08.33-.4zm-.22-3.7l.1.1-.33.4-.1-.09.33-.41zm.58 3.27l.1.08-.34.4-.1-.08.34-.4zm-1.26-2.44l.11.1-.34.4-.1-.1.33-.4zm-1.36 1.66l.1.08-.34.4-.1-.08.34-.4zm1.25 2.43l.1.08-.33.4-.1-.08.33-.4zm1.48-5.75l.1.09-.34.4-.1-.08.34-.41zm-2.05 2.49l.1.08-.34.4-.1-.08.34-.4zm-.12 4.09l.1.08-.33.4-.1-.08.33-.4zm5.47-6.63l.1.08-.34.4-.1-.08.34-.4zm-2.74 3.31l.1.09-.34.4-.1-.08.34-.41zm4.04-4.69l-.17.21-.1-.09.17-.2.1.08zm-2.56-1.06l.1.09-.34.4-.1-.08.34-.41zm1.94 1.6l.1.1-.34.4-.1-.09.34-.41zm-3.31.06l.1.09-.33.4-.1-.08.33-.41zm.58 3.26l.1.09-.34.4-.1-.08.34-.41zm.68-.83l.1.09-.33.4-.1-.08.33-.41zm-.56-3.26l.1.09-.34.4-.1-.08.34-.41zm1.25 2.44l.1.08-.33.4-.11-.08.34-.4zm-10.14 8.33l.1.1-.34.4-.1-.1.34-.4zm-.12 4.1l.11.08-.18.2-.1-.08.17-.2zm.68-.83l.1.08-.33.4-.1-.08.33-.4zm.11-4.1l.1.1-.33.4-.1-.09.33-.41zm.58 3.27l.1.08-.34.4-.1-.08.34-.4zm8.77-14.37l-.1-.09.17-.2.1.08-.17.21zm-12.07 14.43l.1.08-.17.2-.1-.08.17-.2zm6.73-4.2l.1.09-.34.4-.1-.08.34-.41zm-5.36 2.54l.1.09-.34.4-.1-.08.34-.41zm-.7.83l.1.09-.33.4-.1-.09.33-.4zm4.69-1.71l.1.09-.34.4-.1-.09.34-.4zm-1.94-1.6l.1.08-.34.4-.1-.08.34-.4zm2.04-2.5l.1.1-.33.4-.1-.1.33-.4zm.58 3.27l.1.08-.34.4-.1-.08.34-.4zm.11-4.1l.1.1-.33.4-.1-.09.33-.41zm-2.16 6.58l.1.09-.34.4-.1-.08.34-.41zm.11-4.09l.11.09-.34.4-.1-.08.33-.41zm.58 3.26l.1.1-.34.4-.1-.09.34-.41zm.1-4.09l.11.09-.34.4-.1-.08.33-.41z" id="dS"/><path d="M752.22 465.07l-2.9-2.4 3.92-4.72 2.9 2.4-3.92 4.72z" id="dT"/><path d="M753.7 463.28l2.44-2.95-2.9-2.39-1.31 1.59 1.78 3.75h-.01z" id="dU"/><path d="M751.93 459.53l1.78 3.75.17-.21-1.26-4.38-.69.84z" id="dV"/><path d="M777.27 432.22a.35.35 0 1 1-.05-.5.35.35 0 0 1 .05.5zm-1.39 1.32a.34.34 0 0 1-.06-.63.35.35 0 0 1 .39.04c.15.12.17.33.05.48a.35.35 0 0 1-.38.1v.01zm-1 1.23a.35.35 0 1 1 .2-.67.35.35 0 0 1-.2.67zm-1.02 1.23a.35.35 0 1 1-.06-.64.34.34 0 0 1 .38.03c.15.13.17.35.05.5a.34.34 0 0 1-.37.1v.01zm-.64 1.1a.34.34 0 1 1-.53-.44.34.34 0 0 1 .53.44zm6.45-10.78l-12.27 14.84 2.8 1.94 12.08-14.62-.79-1.79-1.82-.37z" id="dW"/><path d="M776.75 430.37l.11.09-.35.42-.1-.09.34-.42zm.23 3.68l.11.08-.35.43-.1-.1.34-.41zm.12-4.09l.1.1-.35.41-.1-.09.35-.42zm-2.05 2.49l.1.08-.35.43-.1-.1.35-.41zm-.12 4.08l.11.09-.35.43-.1-.1.34-.42zm1.36-1.65l.1.09-.33.42-.11-.1.34-.41zm-.56-3.26l.1.1-.34.41-.11-.09.35-.42zm1.94 1.6l.1.1-.34.41-.11-.08.35-.43zm3.41-4.13l.11.09-.35.42-.1-.1.34-.41zm-.7.82l.11.09-.34.42-.1-.09.33-.42zm-.67.83l.1.09-.34.42-.11-.1.35-.41zm-5.36 2.53l.1.1-.34.41-.11-.09.35-.42zm7.36-4.72l-.2.22-.1-.1.18-.21.12.09zm-3.95.59l.11.09-.35.42-.1-.09.34-.42zm.58 3.26l.1.08-.34.43-.11-.1.35-.41zm.68-.83l.11.09-.35.42-.1-.09.34-.42zm-.57-3.26l.1.1-.34.42-.1-.09.34-.43zm.68-.82l.1.09-.34.42-.1-.09.34-.42zm-3.53 8.22l.1.09-.33.42-.11-.09.34-.42zm-6.03 3.36l.1.1-.34.41-.1-.09.34-.42zm.56 3.26l.11.09-.34.42-.1-.09.33-.42zm-.67.83l.1.09-.17.22-.11-.1.18-.21zm.79-4.92l.1.09-.34.42-.1-.09.34-.42zm9.34-11.06l-.1-.1.17-.21.11.09-.18.22zm-8.76 14.33l.1.09-.34.42-.1-.09.34-.42zm-2.62-.77l.11.08-.35.43-.1-.1.34-.41zm.69-.83l.1.09-.34.42-.11-.09.35-.42zm-1.37 1.66l.11.09-.18.21-.11-.09.18-.21zm5.36-2.54l.1.09-.34.42-.11-.1.35-.41zm.11-4.09l.1.1-.34.41-.1-.09.34-.42zm1.26 2.43l.1.09-.35.42-.1-.09.35-.42zm-.58-3.25l.11.08-.35.42-.1-.08.34-.42zm-.1 4.08l.1.09-.35.42-.1-.09.35-.42zm-1.37 1.65l.1.09-.35.42-.1-.09.35-.42zm-.7.82l.12.1-.35.41-.11-.08.34-.43zm.8-4.9l.1.08-.34.42-.1-.09.34-.41zm-.68.82l.1.09-.35.42-.1-.1.35-.41zm-.7.82l.11.1-.34.41-.11-.09.34-.42z" id="dX"/><path d="M770.08 443.8l-3.13-2.6.39-.45 3.13 2.58-.39.47z" id="dY"/><path d="M769.45 443.27l-.82-.68.38-.46.82.68-.38.46z" id="dZ"/><path d="M768.44 442.44l-.44-.37.38-.46.44.37-.38.46z" id="ea"/><path d="M765.7 449.1l-3.13-2.6.39-.45 3.13 2.58-.39.47z" id="eb"/><path d="M765.07 448.57l-.82-.68.38-.46.82.68-.38.46z" id="ec"/><path d="M764.06 447.74l-.44-.37.38-.46.44.37-.38.46z" id="ed"/><path d="M764.41 447.64a2.68 2.68 0 0 1-.36-3.78l.98-1.18a2.68 2.68 0 0 1 4.13 3.41l-.98 1.19a2.68 2.68 0 0 1-3.77.36z" id="ee"/><path d="M766.19 441.26l-3.03 3.66c1.24.2 4.13.66 6.1 1.03l1.06-1.28a.84.84 0 0 0-.11-1.19l-2.83-2.34a.84.84 0 0 0-1.2.12h.01z" id="ef"/><path d="M766.4 448.54l-3.18-2.62 3.64-4.4 3.17 2.62-3.63 4.4z" id="eg"/><path d="M764.14 444.38l2.5-3.04h.5l2.79 2.3-.08-.27-2.57-2.13s-.33-.24-.86.07l-2.63 3.18.35-.11z" id="eh"/><path d="M767.55 444a.8.8 0 1 1 1.24 1.03.8.8 0 0 1-1.24-1.03z" id="ei"/><path d="M766.17 442.85a.8.8 0 1 1 1.23 1.03.8.8 0 0 1-1.23-1.03z" id="ej"/><path d="M765.91 445.98a.8.8 0 1 1 1.25 1.03.8.8 0 0 1-1.25-1.03z" id="ek"/><path d="M764.52 444.84a.8.8 0 1 1 1.24 1.03.8.8 0 0 1-1.24-1.03z" id="el"/><path d="M766.51 444.72a.28.28 0 1 1 .43.35.28.28 0 0 1-.43-.35z" id="em"/><path d="M766.62 444.82c.09-.1.24-.12.35-.03.1.09.12.25.03.35a.25.25 0 0 1-.35.04.25.25 0 0 1-.03-.36z" id="en"/><path d="M766.43 445.15l-.25.31.1.08.5-.6-.1-.08-.25.3" id="eo"/><path d="M766.47 444.6l-.81-.7-.08.1 1.1.95.08-.1-.3-.24" id="ep"/><path d="M766.5 446.63a.24.24 0 0 1 .22-.27.24.24 0 1 1-.22.27z" id="eq"/><path d="M766.54 446.66a.23.23 0 0 1 .22-.25c.13-.01.24.08.26.2a.23.23 0 0 1-.21.25.25.25 0 0 1-.18-.05.22.22 0 0 1-.09-.15z" id="er"/><path d="M766.65 446.72l.07.25h.18l-.13-.5h-.18l.07.25" id="es"/><path d="M766.45 446.5l-.44.14v.18l.6-.19v-.18l-.16.06" id="et"/><path d="M765.15 445.25c.1-.05.2-.04.28.03.08.06.1.16.08.26a.25.25 0 0 1-.22.17c-.1 0-.2-.05-.24-.14a.24.24 0 0 1 .1-.32z" id="eu"/><path d="M765.2 445.29a.22.22 0 0 1 .3.1c.07.11.02.26-.09.32a.22.22 0 0 1-.3-.1.25.25 0 0 1-.02-.18.24.24 0 0 1 .11-.14z" id="ev"/><path d="M765.09 445.5l-.24.2.04.11.46-.39-.04-.11-.22.19" id="ew"/><path d="M765.24 445.18l-.3-.4-.08.02.42.54.07-.02-.1-.14" id="ex"/><path d="M767.04 443.26c.13.05.2.19.16.32a.26.26 0 0 1-.32.17.26.26 0 0 1-.17-.33c.05-.13.2-.2.33-.16z" id="ey"/><path d="M767.07 443.31a.24.24 0 1 1-.3.16.23.23 0 0 1 .3-.16z" id="ez"/><path d="M766.99 443.68l.22.22.07-.08-.45-.43-.06.07.22.22" id="eA"/><path d="M766.99 443.22l.3-.41-.1-.02-.4.56.1.02.1-.15" id="eB"/><path d="M768.08 444.58c.03-.1.12-.16.22-.16s.2.05.24.14c.04.1.02.2-.05.27a.25.25 0 0 1-.27.06.24.24 0 0 1-.14-.31z" id="eC"/><path d="M768.12 444.62a.24.24 0 0 1 .31-.15.24.24 0 0 1-.16.46.24.24 0 0 1-.15-.31z" id="eD"/><path d="M768.22 444.75l-.18.24.15.03.35-.47-.15-.03-.17.23" id="eE"/><path d="M768.42 444.37l-.17-.44h-.17l.23.6h.17l-.06-.16" id="eF"/><path d="M701.61 412.68l-.24-1.75 5.71-.8.24 1.75-5.71.8z" id="eG"/><path d="M701.45 411.5l-.08-.57 5.71-.8.08.57-5.71.8z" id="eH"/><path d="M704.53 476.2l-.32-2.29 17.53-2.44.32 2.3-17.53 2.43z" id="eI"/><path d="M713.05 430.03c-4.48-2.79-6.32-17.15-6.32-17.15.21-.24-.07-.51-.07-.51a.46.46 0 0 0-.08-.56l-1.14.16-2 .27-1.14.17c-.11.18-.08.41.07.56 0 0-.2.34.07.5 0 0 2.16 14.32-1.39 18.23s-.68 22.75.39 30.45l1.48 10.69s.3 2.3 1.08 2.19l2.4-.34 5.63-.78 2-.27 5.62-.79 2.4-.33c.78-.1.44-2.4.44-2.4l-1.49-10.7c-1.07-7.7-3.47-26.6-7.95-29.39z" id="eJ"/><path d="M713.05 430.03c-4.48-2.79-6.32-17.15-6.32-17.15.22-.24-.07-.51-.07-.51a.46.46 0 0 0-.08-.56l-1.14.16-1.17.16c.28 4.48 1.35 15.66 5.3 18.7 4.97 3.8.67 12.89 4.86 25.45 2.74 8.2 3.04 13.92 2.92 16.9l2.3-.33 2.4-.33c.78-.11.44-2.4.44-2.4l-1.5-10.7c-1.06-7.7-3.46-26.6-7.94-29.39z" id="eK"/><path d="M722.5 470.11l-1.5-10.69c-1.07-7.7-3.46-26.6-7.94-29.39-4.49-2.8-6.32-17.15-6.32-17.15.21-.24-.07-.51-.07-.51a.46.46 0 0 0-.08-.56l-1.15.16-.24.03c.8 4.58 2.61 14.05 4.49 16.82 2.5 3.7 2.71 1.38 4.8 9.72 2.07 8.35 3.4 23.44 4.22 29.29.27 1.94.46 3.65.59 5.07l.36-.05 2.4-.34c.77-.1.44-2.4.44-2.4z" id="eL"/><path d="M722.5 470.11l-1.5-10.69c-1.07-7.7-3.46-26.6-7.95-29.39-4.48-2.8-6.31-17.15-6.31-17.15.21-.24-.07-.51-.07-.51a.46.46 0 0 0-.08-.56l-1.15.16-1.7.24c1.42 7.6 5.49 29.59 6.45 37.77 1.18 9.97.9 21.84 1.14 23.54l.07.48.63-.1 2-.27 5.62-.78 2.4-.33c.78-.11.45-2.4.45-2.4v-.01z" id="eM"/><path d="M722.05 472.51c.78-.1.44-2.4.44-2.4l-1.5-10.69c-1.06-7.7-3.46-26.6-7.94-29.39-4.48-2.8-6.32-17.15-6.32-17.15.21-.24-.07-.51-.07-.51a.46.46 0 0 0-.08-.56l-1.14.16-2 .27-.6.09c.72 4.5 2.65 17.28 1.98 19.95-.83 3.25-3.94 11.88-2.3 20.7 1.19 6.41 2.25 16.71 2.75 21.87l1.14-.16 5.62-.78 2-.27 5.62-.79 2.4-.34z" id="eN"/><path d="M703 413.33s2.66 14.82-.38 18.79c-3.05 3.97-2 13.68-1.19 19.47l3.1 22.27.59-.08s-4.87-31.76-3.26-36.58c1.62-4.82 3.05-6.8 2.98-10.98-.07-4.18-1.47-13.32-1.47-13.32l-.37.43z" id="eO"/><path d="M756.22 472.06s4.42-1.03 5.67-5.1c1.25-4.05-.46-18.47-.39-21.26.07-2.78 3.96-10.87-1.23-21.1-4.24-8.35-12.08-2.65-14.84 8.34-2.76 10.98 1.61 25.6 1.26 29.37-.36 3.77 3.46 11.3 9.53 9.75z" id="eP"/><path d="M752.42 429.12l.15 11.02s-5.7 3.51-5.19 15.65c.52 12.14 7.96 10.23 7.96 10.23s6.63-.35 6.27-8.72c-.36-8.37-1.57-14.83-4.3-16.44l-.8-11.91s-3.68.1-4.09.17z" id="eQ"/><path d="M752.78 429.77l.14 10.62s-5.79 3.4-5.29 15.1 7.67 9.86 7.67 9.86 6.39-.34 6.05-8.4c-.34-8.08-1.51-14.3-4.44-15.84l-.77-11.48s-3.26.08-3.36.14z" id="eR"/><path d="M749.45 447.52l.7.5s3.97-1.66 7.98-.34l.51-.29s-.7-3.9-4.92-2.4c-4.22 1.49-4.27 2.53-4.27 2.53z" id="eS"/><path d="M752.8 429.77l.13 10.62s-1.82 1.07-3.33 4.07l-.14 3.06s4.73-1.9 9.2-.14l-.16-4.75a4.48 4.48 0 0 0-1.58-1.53l-.78-11.47s-3.26.08-3.35.14h.01z" id="eT"/><path d="M745.43 432.93c-1.34 5.33-1 11.5-.34 16.89a29.42 29.42 0 0 0 2.63-8.67c.8-5.57 1.31-9.3 1.31-9.3s3.62-3.3 10.6-.45c0 0 1.29 9.13 1.37 13.72 0 .98.2 1.95.59 2.85a29.4 29.4 0 0 1-.1-2.26c.08-2.79 3.97-10.87-1.22-21.1-4.24-8.36-12.08-2.66-14.84 8.32z" id="eU"/><path d="M745.43 432.94c-1.34 5.32-1 11.5-.34 16.88l.23-.48c-.51-4.97-.67-10.45.48-15.24 2.64-10.97 10.15-16.66 14.24-8.3 5 10.23 1.45 20.36 1.46 19.9.07-2.78 3.96-10.87-1.23-21.1-4.24-8.35-12.08-2.65-14.84 8.34z" id="eV"/><path d="M762.8 436.87c.18 1.1.13 2.19-.14 3.28l.1-.17c.21-1.04.23-2.07.05-3.11h-.01z" id="eW"/><path d="M761.53 446.15c.07-1.15.69-3.09 1.1-5.64l.02-.36c-.42 2.76-1.11 4.83-1.14 5.99 0 .02 0 .02.02.01z" id="eX"/><path d="M745.49 449.8v-.02a52.58 52.58 0 0 1 0 .02z" id="eY"/><path d="M745.45 433.38a38 38 0 0 0-.87 10.7 37.9 37.9 0 0 1 .88-10.56c2.76-10.98 10.6-16.68 14.84-8.33 1.84 3.64 2.54 7 2.67 9.95-.11-2.99-.8-6.4-2.68-10.1-4.24-8.35-12.08-2.65-14.84 8.34z" id="eZ"/><path d="M761.9 466.96c.21-.7.34-1.74.4-2.96-.96.32-1.8 1.27-3.35 3.56-2.61 3.88-7.06.93-8.42-1.45-.96-1.69-2.77-1.97-3.74-2 .69 3.93 4.23 9.28 9.44 7.94 0 0 4.41-1.03 5.66-5.09h.01z" id="fa"/><path d="M761.83 465.7c-1.25 4.07-5.66 5.1-5.66 5.1-4.67 1.2-8-2.97-9.14-6.67l-.25-.02c.69 3.93 4.23 9.27 9.44 7.94 0 0 4.42-1.03 5.67-5.09.22-.7.34-1.74.4-2.96l-.15.06a9.24 9.24 0 0 1-.3 1.65l-.01-.01z" id="fb"/><path d="M761.87 466.5c-1.25 4.07-5.67 5.1-5.67 5.1-5.14 1.3-8.66-3.89-9.4-7.8h-.03c.69 3.93 4.23 9.27 9.44 7.94 0 0 4.42-1.03 5.67-5.09.22-.7.34-1.74.41-2.96h-.01c-.07 1.16-.2 2.13-.4 2.81h-.01z" id="fc"/><path d="M747.59 439.7c-.2 3.53-2.12 7.55-2.67 8.64l.17 1.48a29.42 29.42 0 0 0 2.62-8.67c.82-5.57 1.32-9.3 1.32-9.3s3.62-3.3 10.6-.45c0 0 1.29 9.13 1.37 13.72 0 .98.2 1.95.59 2.85-.07-1-.1-1.8-.1-2.26 0-.11.02-.24.04-.36-.55-4.31-.18-10.96-1.48-13.83-1.7-3.76-10.43-1.23-11.1-.64-.67.59-1.12 4.7-1.36 8.83v-.01z" id="fd"/><path d="M758.27 438.9a.62.62 0 0 1 .66.57.62.62 0 0 1-.58.66.62.62 0 1 1-.09-1.24l.01.01z" id="fe"/><path d="M758.1 436.44a.62.62 0 0 1 .66.58.62.62 0 0 1-.58.66.62.62 0 1 1-.09-1.24h.01z" id="ff"/><path d="M757.93 434a.62.62 0 0 1 .66.58.62.62 0 0 1-.58.66.62.62 0 0 1-.66-.58.62.62 0 0 1 .58-.66z" id="fg"/><path d="M757.77 431.55a.62.62 0 0 1 .66.58.62.62 0 0 1-.58.66.62.62 0 0 1-.66-.58.62.62 0 0 1 .58-.66z" id="fh"/><path d="M751.27 438.91c.34 0 .61.29.61.63s-.29.62-.63.61a.62.62 0 0 1-.61-.63.62.62 0 0 1 .63-.61z" id="fi"/><path d="M751.3 436.46a.62.62 0 0 1 .62.63.62.62 0 0 1-.63.6.62.62 0 0 1-.61-.62.62.62 0 0 1 .63-.61h-.01z" id="fj"/><path d="M751.35 434.01c.34 0 .61.29.6.63a.62.62 0 0 1-.62.6.62.62 0 0 1-.61-.62.62.62 0 0 1 .63-.61z" id="fk"/><path d="M751.39 431.55a.62.62 0 0 1 .6.63.62.62 0 0 1-.62.6.62.62 0 0 1 .02-1.24v.01z" id="fl"/><path d="M758.62 439.58v.05a.3.3 0 0 1-.33.25c-4.23-.62-6.92 0-6.94.01a.3.3 0 0 1-.14-.57c.11-.03 2.81-.67 7.17-.02a.3.3 0 0 1 .24.28z" id="fm"/><path d="M758.45 437.13l-.01.1a.3.3 0 0 1-.36.2c-3.64-.96-6.65 0-6.68.01a.3.3 0 0 1-.19-.56c.13-.04 3.22-1.02 7.02-.02a.3.3 0 0 1 .22.27z" id="fn"/><path d="M758.27 434.68v.08a.3.3 0 0 1-.37.22c-3.1-.76-6.46 0-6.5.01a.3.3 0 1 1-.13-.58c.14-.03 3.53-.8 6.77 0a.3.3 0 0 1 .23.27z" id="fo"/><path d="M758.1 432.23l-.01.11a.3.3 0 0 1-.38.18c-3.15-1.14-6.2 0-6.22 0a.3.3 0 1 1-.21-.55c.14-.05 3.27-1.21 6.63 0a.3.3 0 0 1 .2.26h-.01z" id="fp"/><path d="M758.61 439.5v.05a.3.3 0 0 1-.33.25c-4.23-.62-6.92 0-6.95.01a.3.3 0 0 1-.13-.57c.11-.03 2.81-.67 7.17-.02a.3.3 0 0 1 .24.28z" id="fq"/><path d="M758.44 437.05l-.01.1a.3.3 0 0 1-.36.2c-3.64-.96-6.65 0-6.68.01a.3.3 0 0 1-.19-.56c.13-.04 3.21-1.02 7.02-.02a.3.3 0 0 1 .22.27z" id="fr"/><path d="M758.27 434.6v.09a.3.3 0 0 1-.36.21c-3.11-.76-6.47 0-6.5.01a.3.3 0 0 1-.14-.57c.14-.04 3.53-.8 6.77-.01a.3.3 0 0 1 .23.27z" id="fs"/><path d="M758.1 432.16a.3.3 0 0 1-.4.3c-3.15-1.15-6.18-.02-6.21 0a.3.3 0 1 1-.21-.56c.13-.05 3.27-1.21 6.63 0a.3.3 0 0 1 .2.26h-.01z" id="ft"/><path d="M766.35 482.1s-3.97-2.2-4.05-6.46c-.08-4.26 5.54-17.64 6.24-20.33.7-2.7-.82-11.55 6.99-19.95 6.37-6.86 12.34.78 11.97 12.1-.37 11.32-8.6 24.18-9.3 27.9-.7 3.71-6.44 9.9-11.85 6.74z" id="fu"/><path d="M781.81 441.86l-3.17 10.55s4.51 4.95.67 16.48c-3.85 11.52-10.46 7.64-10.46 7.64s-6.28-2.17-3.63-10.11c2.65-7.95 5.6-13.83 8.67-14.62l4.05-11.23s3.5 1.1 3.87 1.3v-.01z" id="fv"/><path d="M781.3 442.4l-3.07 10.17s4.64 4.87.93 15.97c-3.7 11.11-10.08 7.37-10.08 7.37s-6.06-2.1-3.5-9.75c2.56-7.66 5.4-13.32 8.63-14l3.9-10.82s3.11.98 3.18 1.07l.01-.01z" id="fw"/><path d="M779.6 460.37l-.8.3s-3.36-2.7-7.58-2.53l-.41-.43s1.75-3.56 5.4-.96c3.64 2.6 3.4 3.62 3.4 3.62h-.01z" id="fx"/><path d="M781.3 442.4l-3.07 10.17s1.46 1.52 2.09 4.83l-.71 2.98s-4.03-3.13-8.8-2.66l1.45-4.53a4.5 4.5 0 0 1 1.95-1.03l3.9-10.82s3.11.97 3.18 1.06h.01z" id="fy"/><path d="M787.5 447.46c-.19 5.49-2.2 11.33-4.33 16.32a29.49 29.49 0 0 1-.14-9.06c.75-5.57 1.3-9.3 1.3-9.3s-2.58-4.18-10.08-3.36c0 0-3.74 8.43-5.09 12.82a7.43 7.43 0 0 1-1.35 2.58c.34-.95.6-1.7.71-2.15.7-2.7-.8-11.55 7-19.95 6.38-6.86 12.34.78 11.97 12.1h.01z" id="fz"/><path d="M787.5 447.46c-.18 5.49-2.2 11.33-4.33 16.32l-.1-.52c1.87-4.64 3.53-9.86 3.75-14.78.49-11.28-5.17-18.82-11.4-11.9-7.62 8.45-7 19.17-6.89 18.73.7-2.7-.81-11.55 7-19.95 6.37-6.86 12.33.78 11.97 12.1z" id="fA"/><path d="M769.8 446.49c-.34 1.04-.63 2.1-.86 3.16l.02-.17c.23-1.01.51-2.01.85-2.99h-.01z" id="fB"/><path d="M768.38 455.72c.24-1.12.18-3.16.5-5.72l.07-.35c-.36 2.77-.27 4.95-.55 6.07 0 .02 0 .02-.02 0z" id="fC"/><path d="M782.94 463.7v-.02a74.52 74.52 0 0 0 0 .01v.01z" id="fD"/><path d="M787.36 447.88a37.92 37.92 0 0 1-2.12 10.53 37.71 37.71 0 0 0 2.07-10.39c.37-11.32-5.6-18.96-11.97-12.1a24.06 24.06 0 0 0-5.31 8.83 24.02 24.02 0 0 1 5.35-8.97c6.38-6.86 12.34.78 11.98 12.1z" id="fE"/><path d="M762.3 475.64c-.01-.74.15-1.77.42-2.96.85.58 1.38 1.71 2.24 4.35 1.45 4.44 6.54 2.84 8.5.92 1.39-1.35 3.2-1.13 4.15-.88-1.74 3.58-6.62 7.74-11.26 5.03 0 0-3.97-2.21-4.05-6.46z" id="fF"/><path d="M762.7 474.45c.08 4.25 4.04 6.46 4.04 6.46 4.16 2.43 8.51-.65 10.62-3.9l.25.06c-1.74 3.58-6.62 7.74-11.26 5.03 0 0-3.97-2.2-4.05-6.46-.01-.74.15-1.77.42-2.96l.14.1c-.1.55-.16 1.11-.16 1.67z" id="fG"/><path d="M762.44 475.2c.08 4.25 4.04 6.46 4.04 6.46 4.58 2.68 9.4-1.34 11.2-4.9h.02c-1.74 3.6-6.62 7.75-11.26 5.04 0 0-3.97-2.2-4.05-6.46-.01-.74.15-1.77.42-2.96l.02.01c-.26 1.13-.4 2.1-.4 2.81h.01z" id="fH"/><path d="M783.55 453.37c-.77 3.44-.04 7.84.19 9.04l-.57 1.37a29.49 29.49 0 0 1-.14-9.06c.75-5.58 1.3-9.3 1.3-9.3s-2.58-4.18-10.08-3.36c0 0-3.74 8.43-5.09 12.82a7.43 7.43 0 0 1-1.35 2.58c.34-.95.6-1.7.71-2.16l.08-.35c1.72-4 3.19-10.48 5.22-12.89 2.67-3.14 10.37 1.7 10.85 2.45.48.74-.22 4.84-1.12 8.86z" id="fI"/><path d="M773.51 449.65a.62.62 0 1 0-.42 1.16.62.62 0 0 0 .8-.37.62.62 0 0 0-.38-.8v.01z" id="fJ"/><path d="M774.35 447.35a.62.62 0 0 0-.8.37.62.62 0 0 0 .38.79.62.62 0 0 0 .8-.37.62.62 0 0 0-.38-.8v.01z" id="fK"/><path d="M775.18 445.04a.62.62 0 0 0-.8.37c-.1.32.06.67.38.8.32.1.67-.06.8-.38a.62.62 0 0 0-.38-.8v.01z" id="fL"/><path d="M776.02 442.74a.62.62 0 0 0-.8.37.62.62 0 0 0 .38.8.62.62 0 0 0 .8-.38.62.62 0 0 0-.38-.8v.01z" id="fM"/><path d="M780.24 451.6a.62.62 0 0 0-.76.44c-.09.33.1.67.44.76.33.09.67-.1.76-.44a.62.62 0 0 0-.44-.76z" id="fN"/><path d="M780.87 449.23a.62.62 0 0 0-.76.44.62.62 0 0 0 .44.76.62.62 0 1 0 .32-1.2z" id="fO"/><path d="M781.51 446.86a.62.62 0 0 0-.76.44.622.622 0 0 0 1.2.32.62.62 0 0 0-.44-.76z" id="fP"/><path d="M782.15 444.5a.62.62 0 0 0-.76.43.622.622 0 0 0 1.2.32.62.62 0 0 0-.44-.76v.01z" id="fQ"/><path d="M773 450.21l-.02.06a.3.3 0 0 0 .26.33c4.23.56 6.64 1.91 6.67 1.92a.3.3 0 1 0 .29-.5c-.1-.07-2.52-1.43-6.88-2a.3.3 0 0 0-.32.2v-.01z" id="fR"/><path d="M773.83 447.91l-.02.09a.3.3 0 0 0 .29.3c3.76.08 6.4 1.83 6.42 1.85a.3.3 0 1 0 .33-.5c-.11-.07-2.8-1.86-6.74-1.94a.3.3 0 0 0-.28.2z" id="fS"/><path d="M774.67 445.6l-.02.08a.3.3 0 0 0 .29.31c3.2.13 6.21 1.78 6.24 1.8a.3.3 0 1 0 .29-.52 16.42 16.42 0 0 0-6.51-1.87.3.3 0 0 0-.3.2h.01z" id="fT"/><path d="M775.5 443.3a.3.3 0 0 0 .3.39 9.91 9.91 0 0 1 5.99 1.71.3.3 0 1 0 .35-.47c-.11-.08-2.81-2.07-6.37-1.83a.3.3 0 0 0-.27.2z" id="fU"/><path d="M773.02 450.14l-.02.06a.3.3 0 0 0 .26.33c4.23.56 6.64 1.9 6.67 1.92a.3.3 0 1 0 .29-.5c-.1-.07-2.52-1.43-6.88-2a.3.3 0 0 0-.32.2v-.01z" id="fV"/><path d="M773.86 447.83l-.02.09a.3.3 0 0 0 .29.3c3.76.08 6.4 1.83 6.42 1.85a.3.3 0 1 0 .33-.5c-.11-.07-2.8-1.86-6.74-1.94a.3.3 0 0 0-.28.2z" id="fW"/><path d="M774.7 445.53l-.02.09a.3.3 0 0 0 .28.3c3.2.13 6.22 1.79 6.25 1.8a.3.3 0 1 0 .29-.52c-.13-.07-3.18-1.74-6.51-1.87a.3.3 0 0 0-.3.2h.01z" id="fX"/><path d="M775.52 443.23a.3.3 0 0 0 .3.39 9.92 9.92 0 0 1 5.99 1.71.3.3 0 1 0 .35-.47 10.36 10.36 0 0 0-6.37-1.83.3.3 0 0 0-.27.2z" id="fY"/><path d="M737 452.17l-2.25-7.83 1.07-.3 2.25 7.83-1.07.3z" id="fZ"/><path d="M735.79 447.93l-1.04-3.6 1.07-.3 1.04 3.6-1.07.3z" id="ga"/><path d="M748.95 448.74l-.94-3.28 1.07-.3.94 3.27-1.07.31z" id="gb"/><path d="M748.45 446.95l-.43-1.5 1.06-.3.43 1.5-1.06.3z" id="gc"/><path d="M738.03 454.05l-6.86-23.86 12.28-3.53 6.86 23.86-12.28 3.53z" id="gd"/><path d="M731.91 432.8l-.75-2.61 12.29-3.53.75 2.6-12.29 3.54z" id="ge"/><path d="M738.4 453.65l-.76-2.6 12.27-3.58.77 2.6-12.28 3.58z" id="gf"/><path d="M743.09 451.2a.74.74 0 1 1 1.42-.42.74.74 0 0 1-1.42.41v.01z" id="gg"/><path d="M743.38 451.1a.44.44 0 1 1 .85-.24.44.44 0 0 1-.85.24z" id="gh"/><path d="M743.53 451.06a.28.28 0 1 1 .55-.15.28.28 0 0 1-.55.15z" id="gi"/><path d="M743.97 451.3a.25.25 0 1 1 .48-.14.25.25 0 0 1-.48.14z" id="gj"/><path d="M736 430.48l-.22-.8 3.48-1 .23.8-3.49 1z" id="gk"/><path d="M731.17 430.2l6.87 23.86 5.41-27.4-12.28 3.53v.01z" id="gl"/><path d="M700.52 437.88c-4.7-1.3-8.81 3.63-10.94 8.35-1.58 3.52-1.95 6.77-.85 7.4.25.14.52.27.8.37 2.24.76 3.03-1.36 3.07-1.45 0-.03.97-3 3.05-8.94 1.53-4.37 3.71-5.46 4.87-5.73zm-11.1 16.43c-.3-.1-.58-.23-.85-.4-1.47-.82-.76-4.56.71-7.81 2.3-5.1 6.85-10.43 12.1-8.28l1.01.41-1.1-.1c-.03 0-3.29-.22-5.32 5.58-2.08 5.94-3.05 8.91-3.06 8.94 0 .03-.93 2.54-3.49 1.66z" id="gm"/><path d="M689.27 454.4a4.18 4.18 0 0 1-.96-.46l.38-.55c.01 0 1 .68 2.17.55l.08.67a3.88 3.88 0 0 1-1.67-.2v-.01z" id="gn"/><path d="M701.9 440.2c-.04.14-.46.13-.93-.03-.46-.16-.8-.4-.76-.55l1.09-3.16c.05-.14.46-.13.93.03.47.16.8.4.76.55l-1.09 3.16z" id="go"/><path d="M702.17 439.43c-.02.07-.42 0-.89-.16-.46-.16-.82-.35-.8-.42l.55-1.6c.03-.07.43 0 .9.16.46.16.82.35.8.41l-.56 1.61z" id="gp"/><path d="M710.7 437.9l-6.32-2.17.9-2.66 6.33 2.17-.91 2.66z" id="gq"/><path d="M717.32 440.94l-6.33-2.17.9-2.66 6.33 2.17-.9 2.66z" id="gr"/><path d="M723.96 443.2l-6.33-2.16.9-2.66 6.33 2.17-.9 2.65z" id="gs"/><path d="M704.8 435.93l-.48-.16.91-2.66.48.16-.91 2.66z" id="gt"/><path d="M705.9 435.67l-.47-.16.9-2.68.48.16-.91 2.68z" id="gu"/><path d="M706.5 436.5l-.48-.16.91-2.66.48.16-.91 2.66z" id="gv"/><path d="M707.34 436.79l-.48-.16.91-2.66.48.16-.91 2.66z" id="gw"/><path d="M708.19 437.08l-.48-.16.91-2.66.48.16-.91 2.66z" id="gx"/><path d="M709.04 437.37l-.48-.16.91-2.66.48.16-.91 2.66z" id="gy"/><path d="M709.88 437.66l-.48-.16.91-2.66.48.16-.91 2.66z" id="gz"/><path d="M710.73 437.95l-.48-.16.91-2.66.48.16-.91 2.66z" id="gA"/><path d="M705.48 453.29a8.9 8.9 0 1 1 5.76-16.84l12.74 4.34a8.9 8.9 0 1 1-5.76 16.84l-12.74-4.34z" id="gB"/><path d="M708.3 449.01a.38.38 0 0 1-.49.24.39.39 0 0 1-.24-.5l1.76-5.15a.39.39 0 0 1 .5-.24.39.39 0 0 1 .24.5l-1.77 5.15z" id="gC"/><path d="M730.94 447.92l.91-2.66c.3-.87-.17-1.82-1.04-2.12l-26.4-9.03a1.67 1.67 0 0 0-2.13 1.04l-.91 2.66 29.57 10.11z" id="gD"/><path d="M724.96 450.65a7.45 7.45 0 1 1-14.1-4.83 7.45 7.45 0 0 1 14.1 4.83z" id="gE"/><path d="M724.4 450.45a6.85 6.85 0 1 1-12.98-4.43 6.85 6.85 0 0 1 12.97 4.43h.01z" id="gF"/><path d="M724 450.32a6.44 6.44 0 1 1-12.18-4.17 6.44 6.44 0 0 1 12.18 4.17z" id="gG"/><path d="M719.64 443.15a5.37 5.37 0 1 0-3.48 10.16 5.37 5.37 0 0 0 3.48-10.16zm-3.58 10.48a5.7 5.7 0 1 1 3.69-10.8 5.7 5.7 0 0 1-3.69 10.8z" id="gH"/><path d="M721.61 449.5a3.91 3.91 0 1 1-7.4-2.52 3.91 3.91 0 0 1 7.4 2.52z" id="gI"/><path d="M717.21 445.54a.93.93 0 1 1-1.75-.6.93.93 0 0 1 1.75.6z" id="gJ"/><path d="M710.26 440.9a2.97 2.97 0 1 1-5.62-1.93 2.97 2.97 0 0 1 5.62 1.92v.01z" id="gK"/><path d="M709.9 440.77a2.59 2.59 0 1 1-4.9-1.68 2.59 2.59 0 0 1 4.9 1.68z" id="gL"/><path d="M708.98 440.45a1.61 1.61 0 1 1-3.05-1.04 1.61 1.61 0 0 1 3.05 1.04z" id="gM"/><path d="M712.07 440.57a.72.72 0 1 1-.46 1.36.72.72 0 0 1 .46-1.36z" id="gN"/><path d="M712 440.73a.55.55 0 1 1-.35 1.04.55.55 0 0 1 .36-1.04H712z" id="gO"/><path d="M729.76 446.25l-2.95-1 .56-1.66 2.95 1-.56 1.66z" id="gP"/><path d="M789.76 451.04H694.5l-6.74 70.42-1.56 7.85c-.42 1.35 1.15 2.63 3.25 2.63h104.62c2.45 0 4.26-1.52 3.69-3.09l-1.67-7.43-6.33-70.38z" id="gQ"/><path d="M694.5 451.04l-6.74 70.43 108.33-.06-6.33-70.37H694.5z" id="gR"/><path d="M694.5 531.93v-80.89l-6.74 70.42-1.56 7.84c-.42 1.36 1.15 2.63 3.25 2.63h5.05z" id="gS"/><path d="M789.76 531.93v-80.89l6.33 70.36 1.67 7.44c.57 1.58-1.24 3.09-3.68 3.09h-4.32z" id="gT"/><path d="M716.93 462.38a5.11 5.11 0 1 1 10.22 0 5.11 5.11 0 0 1-10.22 0z" id="gU"/><path d="M718.83 465.05a4.55 4.55 0 1 1 6.43-6.43 4.55 4.55 0 0 1-6.43 6.43z" id="gV"/><path d="M719.65 461.83a2.4 2.4 0 1 1 4.8 0 2.4 2.4 0 0 1-4.8 0z" id="gW"/><path d="M757.11 462.38a5.11 5.11 0 1 1 10.22 0 5.11 5.11 0 0 1-10.22 0z" id="gX"/><path d="M759 465.05a4.55 4.55 0 1 1 6.43-6.43 4.55 4.55 0 0 1-6.43 6.43z" id="gY"/><path d="M759.82 461.83a2.4 2.4 0 1 1 4.8 0 2.4 2.4 0 0 1-4.8 0z" id="gZ"/><path d="M761.12 460.11c-.02 0-1.12.2-1.69 1.07-.36.55-.44 1.26-.25 2.11.26 1.13 1.85 1.73 3.68 2.44 1.95.75 4.24 1.63 5.6 3.44-.52-2.62-1.66-6.57-3.95-8.3a4.12 4.12 0 0 0-3.38-.77l-.01.01zm7.76 11.63c-.63-3.22-3.62-4.37-6.26-5.38-2.01-.77-3.75-1.44-4.1-2.92a3.29 3.29 0 0 1 .35-2.66 3.47 3.47 0 0 1 2.14-1.36c1.38-.29 2.81.04 3.92.9 3.82 2.88 4.6 10.98 4.63 11.32l-.68.1z" id="ha"/><path d="M769.4 470.4a32 32 0 0 0-.27-1.45c-.29-.24-.6-.48-.85-.66.07.3.14.6.19.88a6.26 6.26 0 0 0-.59-.67v.41l1.17 1.6c.12-.02.23-.06.34-.1l.01-.01z" id="hb"/><path d="M760.55 460.3c.18-.09.38-.15.57-.2h.01c.97-.2 1.98-.05 2.84.43v-.77a4.82 4.82 0 0 0-3.47-.2l.05.74z" id="hc"/><path d="M762.35 460.79c.66 0 1.2.53 1.2 1.19.02 1.18.28 29.03-10.88 40.35a15 15 0 0 1-11 4.72c-4.2 0-7.87-1.59-10.88-4.73-10.87-11.33-9.86-39.2-9.82-40.37a1.2 1.2 0 1 1 2.41.1c0 .27-1.02 28.02 9.15 38.6a12.14 12.14 0 0 0 9.14 4c3.54 0 6.66-1.35 9.28-4.01 10.46-10.62 10.2-38.35 10.2-38.63-.01-.66.52-1.21 1.18-1.22h.02z" id="hd"/><path d="M752.67 501.5a15 15 0 0 1-11 4.72c-4.2 0-7.87-1.6-10.88-4.73-8.84-9.21-9.83-29.35-9.86-37.2-.03 7.15.69 28.48 9.86 38.03a14.62 14.62 0 0 0 10.88 4.74 15 15 0 0 0 11-4.73c10.87-11.02 10.91-37.72 10.89-40.2-.04 5.22-.76 29.1-10.89 39.37z" id="he"/><path d="M723.35 463.93c0-1.16.11-1.84.12-1.88a.38.38 0 0 0-.06-.25 23.6 23.6 0 0 0-.06 2.13z" id="hf"/><path d="M762.35 460.79h-.02a1.2 1.2 0 0 0-1.19 1.22c0 .09.03 2.59-.21 6.34l2.41.35c.24-3.78.22-6.38.21-6.72a1.2 1.2 0 0 0-1.2-1.19z" id="hg"/><path d="M722.23 460.8a1.2 1.2 0 0 0-1.26 1.15c0 .35-.1 3.07.04 7.01.8-.18 1.61-.35 2.42-.5-.14-3.8-.05-6.34-.05-6.42a1.2 1.2 0 0 0-1.15-1.25v.01z" id="hh"/><path d="M768.8 496.3a1.1 1.1 0 0 0 1.34 1l11.1-2.41a1.1 1.1 0 0 0 .84-1.34l-4.06-17.17a5.29 5.29 0 0 0-3.03-3.63l-5.12-2.24-3.96 11.3 2.89 14.49z" id="hi"/><path d="M781.15 493.55l-13.18 2.94-4.19-18.79a6.75 6.75 0 0 1 5.13-8.06 6.75 6.75 0 0 1 8.06 5.13l4.18 18.78z" id="hj"/><path d="M767.96 496.49l13.19-2.94-2.93-13.13-10.75 13.86.5 2.2-.01.01z" id="hk"/><path d="M770.35 471.67a.8.8 0 1 1-1.59 0 .8.8 0 0 1 1.59 0z" id="hl"/><path d="M769.55 472.1a.34.34 0 0 1-.33-.24c-.6-1.86-1.73-2.76-1.74-2.77a.34.34 0 0 1 .42-.55 6.67 6.67 0 0 1 1.98 3.1.35.35 0 0 1-.33.46z" id="hm"/></defs><path fill="none" d="M-1-1h367v97H-1z"/><g><use x="-655.999" y="-410" xlink:href="#a" fill="#e6e7e8"/><use x="-655.999" y="-410" xlink:href="#b" fill="#bcbec0"/><use x="-655.999" y="-410" xlink:href="#c" fill="#bcbec0"/><use x="-655.999" y="-410" xlink:href="#d" fill="#bcbec0"/><use x="-655.999" y="-410" xlink:href="#e" fill="#363c44"/><use x="-655.999" y="-410" xlink:href="#f" fill="#40474f"/><use x="-655.999" y="-410" xlink:href="#g" fill="#40474f"/><use x="-655.999" y="-410" xlink:href="#h" fill="#40474f"/><use x="-655.999" y="-410" xlink:href="#i" fill="#40474f"/><use x="-655.999" y="-410" xlink:href="#j" fill="#40474f"/><use x="-655.999" y="-410" xlink:href="#k" fill="#40474f"/><use x="-655.999" y="-410" xlink:href="#l" fill="#40474f"/><use x="-655.999" y="-410" xlink:href="#m" fill="#40474f"/><use x="-655.999" y="-410" xlink:href="#n" fill="#40474f"/><use x="-655.999" y="-410" xlink:href="#o" fill="#40474f"/><use x="-655.999" y="-410" xlink:href="#p" fill="#40474f"/><use x="-655.999" y="-410" xlink:href="#q" fill="#40474f"/><use x="-655.999" y="-410" xlink:href="#r" fill="#40474f"/><use x="-655.999" y="-410" xlink:href="#s" fill="#40474f"/><use x="-655.999" y="-410" xlink:href="#t" fill="#40474f"/><use x="-655.999" y="-410" xlink:href="#u" fill="#40474f"/><use x="-655.999" y="-410" xlink:href="#v" fill="#40474f"/><use x="-655.999" y="-410" xlink:href="#w" fill="#40474f"/><use x="-655.999" y="-410" xlink:href="#x" fill="#40474f"/><use x="-655.999" y="-410" xlink:href="#y" fill="#40474f"/><use x="-655.999" y="-410" xlink:href="#z" fill="#40474f"/><use x="-655.999" y="-410" xlink:href="#A" fill="#40474f"/><use x="-655.999" y="-410" xlink:href="#B" fill="#40474f"/><use x="-655.999" y="-410" xlink:href="#C" fill="#40474f"/><use x="-655.999" y="-410" xlink:href="#D" fill="#40474f"/><use x="-655.999" y="-410" xlink:href="#E" fill="#40474f"/><use x="-655.999" y="-410" xlink:href="#F" fill="#40474f"/><use x="-655.999" y="-410" xlink:href="#G" fill="#40474f"/><use x="-655.999" y="-410" xlink:href="#H" fill="#40474f"/><use x="-655.999" y="-410" xlink:href="#I" fill="#40474f"/><use x="-655.999" y="-410" xlink:href="#J" fill="#40474f"/><use x="-655.999" y="-410" xlink:href="#K" fill="#40474f"/><use x="-655.999" y="-410" xlink:href="#L" fill="#40474f"/><use x="-655.999" y="-410" xlink:href="#M" fill="#40474f"/><use x="-655.999" y="-410" xlink:href="#N" fill="#40474f"/><use x="-655.999" y="-410" xlink:href="#O" fill="#40474f"/><use x="-655.999" y="-410" xlink:href="#P" fill="#40474f"/><use x="-655.999" y="-410" xlink:href="#Q" fill="#40474f"/><use x="-655.999" y="-410" xlink:href="#R" fill="#40474f"/><use x="-655.999" y="-410" xlink:href="#S" fill="#40474f"/><use x="-655.999" y="-410" xlink:href="#T" fill="#40474f"/><use x="-655.999" y="-410" xlink:href="#U" fill="#40474f"/><use x="-655.999" y="-410" xlink:href="#V" fill="#40474f"/><use x="-655.999" y="-410" xlink:href="#W" fill="#40474f"/><use x="-655.999" y="-410" xlink:href="#X" fill="#40474f"/><use x="-655.999" y="-410" xlink:href="#Y" fill="#40474f"/><use x="-655.999" y="-410" xlink:href="#Z" fill="#40474f"/><use x="-655.999" y="-410" xlink:href="#aa" fill="#40474f"/><use x="-655.999" y="-410" xlink:href="#ab" fill="#40474f"/><use x="-655.999" y="-410" xlink:href="#ac" fill="#40474f"/><use x="-655.999" y="-410" xlink:href="#ad" fill="#40474f"/><use x="-655.999" y="-410" xlink:href="#ae" fill="#40474f"/><use x="-655.999" y="-410" xlink:href="#af" fill="#40474f"/><use x="-655.999" y="-410" xlink:href="#ag" fill="#40474f"/><use x="-655.999" y="-410" xlink:href="#ah" fill="#40474f"/><use x="-655.999" y="-410" xlink:href="#ai" fill="#40474f"/><use x="-655.999" y="-410" xlink:href="#aj" fill="#40474f"/><use x="-655.999" y="-410" xlink:href="#ak" fill="#40474f"/><use x="-655.999" y="-410" xlink:href="#al" fill="#40474f"/><use x="-655.999" y="-410" xlink:href="#am" fill="#40474f"/><use x="-655.999" y="-410" xlink:href="#an" fill="#40474f"/><use x="-655.999" y="-410" xlink:href="#ao" fill="#40474f"/><use x="-655.999" y="-410" xlink:href="#ap" fill="#40474f"/><use x="-655.999" y="-410" xlink:href="#aq" fill="#40474f"/><use x="-655.999" y="-410" xlink:href="#ar" fill="#40474f"/><use x="-655.999" y="-410" xlink:href="#as" fill="#40474f"/><use x="-655.999" y="-410" xlink:href="#at" fill="#40474f"/><use x="-655.999" y="-410" xlink:href="#au" fill="#40474f"/><use x="-655.999" y="-410" xlink:href="#av" fill="#40474f"/><use x="-655.999" y="-410" xlink:href="#aw" fill="#40474f"/><use x="-655.999" y="-410" xlink:href="#ax" fill="#40474f"/><use x="-655.999" y="-410" xlink:href="#ay" fill="#40474f"/><use x="-655.999" y="-410" xlink:href="#az" fill="#40474f"/><use x="-655.999" y="-410" xlink:href="#aA" fill="#40474f"/><use x="-655.999" y="-410" xlink:href="#aB" fill="#40474f"/><use x="-655.999" y="-410" xlink:href="#aC" fill="#40474f"/><use x="-655.999" y="-410" xlink:href="#aD" fill="#40474f"/><use x="-655.999" y="-410" xlink:href="#aE" fill="#40474f"/><use x="-655.999" y="-410" xlink:href="#aF" fill="#40474f"/><use x="-655.999" y="-410" xlink:href="#aG" fill="#40474f"/><use x="-655.999" y="-410" xlink:href="#aH" fill="#40474f"/><use x="-655.999" y="-410" xlink:href="#aI" fill="#40474f"/><use x="-655.999" y="-410" xlink:href="#aJ" fill="#40474f"/><use x="-655.999" y="-410" xlink:href="#aK" fill="#40474f"/><use x="-655.999" y="-410" xlink:href="#aL" fill="#40474f"/><use x="-655.999" y="-410" xlink:href="#aM" fill="#40474f"/><use x="-655.999" y="-410" xlink:href="#aN" fill="#40474f"/><use x="-655.999" y="-410" xlink:href="#aO" fill="#40474f"/><use x="-655.999" y="-410" xlink:href="#aP" fill="#40474f"/><use x="-655.999" y="-410" xlink:href="#aQ" fill="#40474f"/><use x="-655.999" y="-410" xlink:href="#aR" fill="#40474f"/><use x="-655.999" y="-410" xlink:href="#aS" fill="#40474f"/><use x="-655.999" y="-410" xlink:href="#aT" fill="#40474f"/><use x="-655.999" y="-410" xlink:href="#aU" fill="#40474f"/><use x="-655.999" y="-410" xlink:href="#aV" fill="#40474f"/><use x="-655.999" y="-410" xlink:href="#aW" fill="#40474f"/><use x="-655.999" y="-410" xlink:href="#aX" fill="#40474f"/><use x="-655.999" y="-410" xlink:href="#aY" fill="#40474f"/><use x="-655.999" y="-410" xlink:href="#aZ" fill="#40474f"/><use x="-655.999" y="-410" xlink:href="#ba" fill="#40474f"/><use x="-655.999" y="-410" xlink:href="#bb" fill="#40474f"/><use x="-655.999" y="-410" xlink:href="#bc" fill="#40474f"/><use x="-655.999" y="-410" xlink:href="#bd" fill="#40474f"/><use x="-655.999" y="-410" xlink:href="#be" fill="#40474f"/><use x="-655.999" y="-410" xlink:href="#bf" fill="#40474f"/><use x="-655.999" y="-410" xlink:href="#bg" fill="#40474f"/><use x="-655.999" y="-410" xlink:href="#bh" fill="#242a30"/><use x="-655.999" y="-410" xlink:href="#bi" fill="#242a30"/><use x="-655.999" y="-410" xlink:href="#bj" fill="#242a30"/><use x="-655.999" y="-410" xlink:href="#bk" fill="#242a30"/><use x="-655.999" y="-410" xlink:href="#bl" fill="#242a30"/><use x="-655.999" y="-410" xlink:href="#bm" fill="#242a30"/><use x="-655.999" y="-410" xlink:href="#bn" fill="#242a30"/><use x="-655.999" y="-410" xlink:href="#bo" fill="#242a30"/><use x="-655.999" y="-410" xlink:href="#bp" fill="#242a30"/><use x="-655.999" y="-410" xlink:href="#bq" fill="#242a30"/><use x="-655.999" y="-410" xlink:href="#br" fill="#242a30"/><use x="-655.999" y="-410" xlink:href="#bs" fill="#242a30"/><use x="-655.999" y="-410" xlink:href="#bt" fill="#242a30"/><use x="-655.999" y="-410" xlink:href="#bu" fill="#242a30"/><use x="-655.999" y="-410" xlink:href="#bv" fill="#242a30"/><use x="-655.999" y="-410" xlink:href="#bw" fill="#242a30"/><use x="-655.999" y="-410" xlink:href="#bx" fill="#242a30"/><use x="-655.999" y="-410" xlink:href="#by" fill="#242a30"/><use x="-655.999" y="-410" xlink:href="#bz" fill="#242a30"/><use x="-655.999" y="-410" xlink:href="#bA" fill="#242a30"/><use x="-655.999" y="-410" xlink:href="#bB" fill="#242a30"/><use x="-655.999" y="-410" xlink:href="#bC" fill="#242a30"/><use x="-655.999" y="-410" xlink:href="#bD" fill="#242a30"/><use x="-655.999" y="-410" xlink:href="#bE" fill="#242a30"/><use x="-655.999" y="-410" xlink:href="#bF" fill="#242a30"/><use x="-655.999" y="-410" xlink:href="#bG" fill="#242a30"/><use x="-655.999" y="-410" xlink:href="#bH" fill="#242a30"/><use x="-655.999" y="-410" xlink:href="#bI" fill="#242a30"/><use x="-655.999" y="-410" xlink:href="#bJ" fill="#242a30"/><use x="-655.999" y="-410" xlink:href="#bK" fill="#242a30"/><use x="-655.999" y="-410" xlink:href="#bL" fill="#242a30"/><use x="-655.999" y="-410" xlink:href="#bM" fill="#242a30"/><use x="-655.999" y="-410" xlink:href="#bN" fill="#242a30"/><use x="-655.999" y="-410" xlink:href="#bO" fill="#242a30"/><use x="-655.999" y="-410" xlink:href="#bP" fill="#242a30"/><use x="-655.999" y="-410" xlink:href="#bQ" fill="#242a30"/><use x="-655.999" y="-410" xlink:href="#bR" fill="#242a30"/><use x="-655.999" y="-410" xlink:href="#bS" fill="#242a30"/><use x="-655.999" y="-410" xlink:href="#bT" fill="#242a30"/><use x="-655.999" y="-410" xlink:href="#bU" fill="#242a30"/><use x="-655.999" y="-410" xlink:href="#bV" fill="#242a30"/><use x="-655.999" y="-410" xlink:href="#bW" fill="#242a30"/><use x="-655.999" y="-410" xlink:href="#bX" fill="#242a30"/><use x="-655.999" y="-410" xlink:href="#bY" fill="#242a30"/><use x="-655.999" y="-410" xlink:href="#bZ" fill="#242a30"/><use x="-655.999" y="-410" xlink:href="#ca" fill="#242a30"/><use x="-655.999" y="-410" xlink:href="#cb" fill="#242a30"/><use x="-655.999" y="-410" xlink:href="#cc" fill="#242a30"/><use x="-655.999" y="-410" xlink:href="#cd" fill="#242a30"/><use x="-655.999" y="-410" xlink:href="#ce" fill="#242a30"/><use x="-655.999" y="-410" xlink:href="#cf" fill="#242a30"/><use x="-655.999" y="-410" xlink:href="#cg" fill="#242a30"/><use x="-655.999" y="-410" xlink:href="#ch" fill="#242a30"/><use x="-655.999" y="-410" xlink:href="#ci" fill="#242a30"/><use x="-655.999" y="-410" xlink:href="#cj" fill="#242a30"/><use x="-655.999" y="-410" xlink:href="#ck" fill="#242a30"/><use x="-655.999" y="-410" xlink:href="#cl" fill="#242a30"/><use x="-655.999" y="-410" xlink:href="#cm" fill="#242a30"/><use x="-655.999" y="-410" xlink:href="#cn" fill="#242a30"/><use x="-655.999" y="-410" xlink:href="#co" fill="#242a30"/><use x="-655.999" y="-410" xlink:href="#cp" fill="#242a30"/><use x="-655.999" y="-410" xlink:href="#cq" fill="#242a30"/><use x="-655.999" y="-410" xlink:href="#cr" fill="#242a30"/><use x="-655.999" y="-410" xlink:href="#cs" fill="#242a30"/><use x="-655.999" y="-410" xlink:href="#ct" fill="#242a30"/><use x="-655.999" y="-410" xlink:href="#cu" fill="#242a30"/><use x="-655.999" y="-410" xlink:href="#cv" fill="#242a30"/><use x="-655.999" y="-410" xlink:href="#cw" fill="#242a30"/><use x="-655.999" y="-410" xlink:href="#cx" fill="#242a30"/><use x="-655.999" y="-410" xlink:href="#cy" fill="#242a30"/><use x="-655.999" y="-410" xlink:href="#cz" fill="#242a30"/><use x="-655.999" y="-410" xlink:href="#cA" fill="#242a30"/><use x="-655.999" y="-410" xlink:href="#cB" fill="#242a30"/><use x="-655.999" y="-410" xlink:href="#cC" fill="#242a30"/><use x="-655.999" y="-410" xlink:href="#cD" fill="#242a30"/><use x="-655.999" y="-410" xlink:href="#cE" fill="#242a30"/><use x="-655.999" y="-410" xlink:href="#cF" fill="#242a30"/><use x="-655.999" y="-410" xlink:href="#cG" fill="#242a30"/><use x="-655.999" y="-410" xlink:href="#cH" fill="#242a30"/><use x="-655.999" y="-410" xlink:href="#cI" fill="#242a30"/><use x="-655.999" y="-410" xlink:href="#cJ" fill="#242a30"/><use x="-655.999" y="-410" xlink:href="#cK" fill="#242a30"/><use x="-655.999" y="-410" xlink:href="#cL" fill="#242a30"/><use x="-655.999" y="-410" xlink:href="#cM" fill="#242a30"/><use x="-655.999" y="-410" xlink:href="#cN" fill="#242a30"/><use x="-655.999" y="-410" xlink:href="#cO" fill="#242a30"/><use x="-655.999" y="-410" xlink:href="#cP" fill="#242a30"/><use x="-655.999" y="-410" xlink:href="#cQ" fill="#242a30"/><use x="-655.999" y="-410" xlink:href="#cR" fill="#242a30"/><use x="-655.999" y="-410" xlink:href="#cS" fill="#242a30"/><use x="-655.999" y="-410" xlink:href="#cT" fill="#242a30"/><use x="-655.999" y="-410" xlink:href="#cU" fill="#242a30"/><use x="-655.999" y="-410" xlink:href="#cV" fill="#242a30"/><use x="-655.999" y="-410" xlink:href="#cW" fill="#242a30"/><use x="-655.999" y="-410" xlink:href="#cX" fill="#242a30"/><use x="-655.999" y="-410" xlink:href="#cY" fill="#242a30"/><use x="-655.999" y="-410" xlink:href="#cZ" fill="#242a30"/><use x="-655.999" y="-410" xlink:href="#da" fill="#242a30"/><use x="-655.999" y="-410" xlink:href="#db" fill="#242a30"/><use x="-655.999" y="-410" xlink:href="#dc" fill="#242a30"/><use x="-655.999" y="-410" xlink:href="#dd" fill="#242a30"/><use x="-655.999" y="-410" xlink:href="#de" fill="#242a30"/><use x="-655.999" y="-410" xlink:href="#df" fill="#242a30"/><use x="-655.999" y="-410" xlink:href="#dg" fill="#242a30"/><use x="-655.999" y="-410" xlink:href="#dh" fill="#242a30"/><use x="-655.999" y="-410" xlink:href="#di" fill="#242a30"/><g><use x="-655.999" y="-410" xlink:href="#dj" fill="#231f20"/></g><g><use x="-655.999" y="-410" xlink:href="#dk"/></g><g><use x="-655.999" y="-410" xlink:href="#dl" fill="#939598"/></g><g><use x="-655.999" y="-410" xlink:href="#dm" fill="#68960e"/></g><g><use x="-655.999" y="-410" xlink:href="#dn" fill="#68960e"/></g><g><use x="-655.999" y="-410" xlink:href="#do" fill="#8dc63f"/></g><g><use x="-655.999" y="-410" xlink:href="#dp" fill="#618726"/></g><g><use x="-655.999" y="-410" xlink:href="#dq" fill="#74a334"/></g><g><use x="-655.999" y="-410" xlink:href="#dr" fill="#618726"/></g><g><use x="-655.999" y="-410" xlink:href="#ds" fill="#74a334"/></g><g><use x="-655.999" y="-410" xlink:href="#dt" fill="#618726"/></g><g><use x="-655.999" y="-410" xlink:href="#du" fill="#74a334"/></g><g><use x="-655.999" y="-410" xlink:href="#dv" fill="#618726"/></g><g><use x="-655.999" y="-410" xlink:href="#dw" fill="#fff"/></g><g><use x="-655.999" y="-410" xlink:href="#dx" fill="#fff"/></g><g><use x="-655.999" y="-410" xlink:href="#dy" fill="#fff"/></g><g><use x="-655.999" y="-410" xlink:href="#dz" fill="#e6e7e8"/></g><g><use x="-655.999" y="-410" xlink:href="#dA" fill="#fff"/></g><g><use x="-655.999" y="-410" xlink:href="#dB" fill="#e6e7e8"/></g><g><use x="-655.999" y="-410" xlink:href="#dC" fill="#fff"/></g><g><use x="-655.999" y="-410" xlink:href="#dD" fill="#e6e7e8"/></g><g><use x="-655.999" y="-410" xlink:href="#dE" fill="#fff"/></g><g><use x="-655.999" y="-410" xlink:href="#dF" fill="#e6e7e8"/></g><g><use x="-655.999" y="-410" xlink:href="#dG" fill="#445e1b"/></g><g><use x="-655.999" y="-410" xlink:href="#dH" fill="#618726"/></g><g><use x="-655.999" y="-410" xlink:href="#dI" fill="#445e1b"/></g><g><use x="-655.999" y="-410" xlink:href="#dJ" fill="#5a7d23"/></g><g><use x="-655.999" y="-410" xlink:href="#dK" fill="#537320"/></g><g><use x="-655.999" y="-410" xlink:href="#dL" fill="#fff"/></g><g><use x="-655.999" y="-410" xlink:href="#dM" fill="#fff"/></g><g><use x="-655.999" y="-410" xlink:href="#dN" fill="#fff"/></g><g><use x="-655.999" y="-410" xlink:href="#dO" fill="#fff"/></g><g><use x="-655.999" y="-410" xlink:href="#dP" fill="#58595b"/></g><g><use x="-655.999" y="-410" xlink:href="#dQ" fill="#a7a9ac"/></g><g><use x="-655.999" y="-410" xlink:href="#dR" fill="#b76c35"/></g><g><use x="-655.999" y="-410" xlink:href="#dS" fill="#66391b"/></g><g><use x="-655.999" y="-410" xlink:href="#dT" fill="#e6e7e8"/></g><g><use x="-655.999" y="-410" xlink:href="#dU" fill="#d1d3d4"/></g><g><use x="-655.999" y="-410" xlink:href="#dV" fill="#a7a9ac"/></g><g><use x="-655.999" y="-410" xlink:href="#dW" fill="#b76c35"/></g><g><use x="-655.999" y="-410" xlink:href="#dX" fill="#66391b"/></g><g><use x="-655.999" y="-410" xlink:href="#dY" fill="#808285"/></g><g><use x="-655.999" y="-410" xlink:href="#dZ" fill="#58595b"/></g><g><use x="-655.999" y="-410" xlink:href="#ea" fill="#d1d3d4"/></g><g><use x="-655.999" y="-410" xlink:href="#eb" fill="#808285"/></g><g><use x="-655.999" y="-410" xlink:href="#ec" fill="#58595b"/></g><g><use x="-655.999" y="-410" xlink:href="#ed" fill="#d1d3d4"/></g><g><use x="-655.999" y="-410" xlink:href="#ee" fill="#e6e7e8"/></g><g><use x="-655.999" y="-410" xlink:href="#ef" fill="#bcbec0"/></g><g><use x="-655.999" y="-410" xlink:href="#eg" fill="#231f20"/></g><g><use x="-655.999" y="-410" xlink:href="#eh" fill="#808285"/></g><g><use x="-655.999" y="-410" xlink:href="#ei" fill="#58595b"/></g><g><use x="-655.999" y="-410" xlink:href="#ej" fill="#58595b"/></g><g><use x="-655.999" y="-410" xlink:href="#ek" fill="#58595b"/></g><g><use x="-655.999" y="-410" xlink:href="#el" fill="#58595b"/></g><g><use x="-655.999" y="-410" xlink:href="#em" fill="#808285"/></g><g><use x="-655.999" y="-410" xlink:href="#en" fill="#be1e2d"/></g><g><use x="-655.999" y="-410" xlink:href="#eo" fill="#be1e2d"/></g><g><use x="-655.999" y="-410" xlink:href="#ep" fill="#be1e2d"/></g><g><use x="-655.999" y="-410" xlink:href="#eq" fill="#808285"/></g><g><use x="-655.999" y="-410" xlink:href="#er" fill="#be1e2d"/></g><g><use x="-655.999" y="-410" xlink:href="#es" fill="#be1e2d"/></g><g><use x="-655.999" y="-410" xlink:href="#et" fill="#be1e2d"/></g><g><use x="-655.999" y="-410" xlink:href="#eu" fill="#808285"/></g><g><use x="-655.999" y="-410" xlink:href="#ev" fill="#be1e2d"/></g><g><use x="-655.999" y="-410" xlink:href="#ew" fill="#be1e2d"/></g><g><use x="-655.999" y="-410" xlink:href="#ex" fill="#be1e2d"/></g><g><use x="-655.999" y="-410" xlink:href="#ey" fill="#808285"/></g><g><use x="-655.999" y="-410" xlink:href="#ez" fill="#be1e2d"/></g><g><use x="-655.999" y="-410" xlink:href="#eA" fill="#be1e2d"/></g><g><use x="-655.999" y="-410" xlink:href="#eB" fill="#be1e2d"/></g><g><use x="-655.999" y="-410" xlink:href="#eC" fill="#808285"/></g><g><use x="-655.999" y="-410" xlink:href="#eD" fill="#be1e2d"/></g><g><use x="-655.999" y="-410" xlink:href="#eE" fill="#be1e2d"/></g><g><use x="-655.999" y="-410" xlink:href="#eF" fill="#be1e2d"/></g><g><use x="-655.999" y="-410" xlink:href="#eG" fill="#231f20"/></g><g><use x="-655.999" y="-410" xlink:href="#eH" fill="#6d6e71"/></g><g><use x="-655.999" y="-410" xlink:href="#eI" fill="#04351d"/></g><g><use x="-655.999" y="-410" xlink:href="#eJ" fill="#30662d"/></g><g><use x="-655.999" y="-410" xlink:href="#eI" fill="#04351d"/></g><g><use x="-655.999" y="-410" xlink:href="#eJ" fill="#30662d"/></g><g><use x="-655.999" y="-410" xlink:href="#eI" fill="#04351d"/></g><g><use x="-655.999" y="-410" xlink:href="#eJ" fill="#30662d"/></g><g><use x="-655.999" y="-410" xlink:href="#eK" fill="#22561e"/></g><g opacity=".2"><use x="-655.999" y="-410" xlink:href="#eL"/></g><g opacity=".2"><use x="-655.999" y="-410" xlink:href="#eM"/></g><g opacity=".2"><use x="-655.999" y="-410" xlink:href="#eN"/></g><g opacity=".4"><use x="-655.999" y="-410" xlink:href="#eO" fill="#f1f2f2"/></g><g><use x="-655.999" y="-410" xlink:href="#eP" fill="#9b8579"/></g><g><use x="-655.999" y="-410" xlink:href="#eQ" fill="#e6e7e8"/></g><g><use x="-655.999" y="-410" xlink:href="#eR" fill="#4c3a33"/></g><g><use x="-655.999" y="-410" xlink:href="#eS" fill="#352622"/></g><g><use x="-655.999" y="-410" xlink:href="#eT" fill="#6d5950"/></g><g><use x="-655.999" y="-410" xlink:href="#eU" fill="#6d5950"/></g><g><use x="-655.999" y="-410" xlink:href="#eV" fill="#e6e7e8"/></g><g><use x="-655.999" y="-410" xlink:href="#eW" fill="#6d6e71"/></g><g><use x="-655.999" y="-410" xlink:href="#eX" fill="#6d6e71"/></g><g><use x="-655.999" y="-410" xlink:href="#eY" fill="#6d6e71"/></g><g><use x="-655.999" y="-410" xlink:href="#eZ" fill="#6d6e71"/></g><g><use x="-655.999" y="-410" xlink:href="#fa" fill="#6d5950"/></g><g><use x="-655.999" y="-410" xlink:href="#fb" fill="#e6e7e8"/></g><g><use x="-655.999" y="-410" xlink:href="#fc" fill="#6d6e71"/></g><g><use x="-655.999" y="-410" xlink:href="#fd" fill="#4c3a33"/></g><g><use x="-655.999" y="-410" xlink:href="#fe" fill="#e6e7e8"/></g><g><use x="-655.999" y="-410" xlink:href="#ff" fill="#e6e7e8"/></g><g><use x="-655.999" y="-410" xlink:href="#fg" fill="#e6e7e8"/></g><g><use x="-655.999" y="-410" xlink:href="#fh" fill="#e6e7e8"/></g><g><use x="-655.999" y="-410" xlink:href="#fi" fill="#e6e7e8"/></g><g><use x="-655.999" y="-410" xlink:href="#fj" fill="#e6e7e8"/></g><g><use x="-655.999" y="-410" xlink:href="#fk" fill="#e6e7e8"/></g><g><use x="-655.999" y="-410" xlink:href="#fl" fill="#e6e7e8"/></g><g><use x="-655.999" y="-410" xlink:href="#fm" fill="#808285"/></g><g><use x="-655.999" y="-410" xlink:href="#fn" fill="#808285"/></g><g><use x="-655.999" y="-410" xlink:href="#fo" fill="#808285"/></g><g><use x="-655.999" y="-410" xlink:href="#fp" fill="#808285"/></g><g><use x="-655.999" y="-410" xlink:href="#fq" fill="#e6e7e8"/></g><g><use x="-655.999" y="-410" xlink:href="#fr" fill="#e6e7e8"/></g><g><use x="-655.999" y="-410" xlink:href="#fs" fill="#e6e7e8"/></g><g><use x="-655.999" y="-410" xlink:href="#ft" fill="#e6e7e8"/></g><g><use x="-655.999" y="-410" xlink:href="#fu" fill="#9b8579"/></g><g><use x="-655.999" y="-410" xlink:href="#fv" fill="#e6e7e8"/></g><g><use x="-655.999" y="-410" xlink:href="#fw" fill="#4c3a33"/></g><g><use x="-655.999" y="-410" xlink:href="#fx" fill="#352622"/></g><g><use x="-655.999" y="-410" xlink:href="#fy" fill="#6d5950"/></g><g><use x="-655.999" y="-410" xlink:href="#fz" fill="#6d5950"/></g><g><use x="-655.999" y="-410" xlink:href="#fA" fill="#e6e7e8"/></g><g><use x="-655.999" y="-410" xlink:href="#fB" fill="#6d6e71"/></g><g><use x="-655.999" y="-410" xlink:href="#fC" fill="#6d6e71"/></g><g><use x="-655.999" y="-410" xlink:href="#fD" fill="#6d6e71"/></g><g><use x="-655.999" y="-410" xlink:href="#fE" fill="#6d6e71"/></g><g><use x="-655.999" y="-410" xlink:href="#fF" fill="#6d5950"/></g><g><use x="-655.999" y="-410" xlink:href="#fG" fill="#e6e7e8"/></g><g><use x="-655.999" y="-410" xlink:href="#fH" fill="#6d6e71"/></g><g><use x="-655.999" y="-410" xlink:href="#fI" fill="#4c3a33"/></g><g><use x="-655.999" y="-410" xlink:href="#fJ" fill="#e6e7e8"/></g><g><use x="-655.999" y="-410" xlink:href="#fK" fill="#e6e7e8"/></g><g><use x="-655.999" y="-410" xlink:href="#fL" fill="#e6e7e8"/></g><g><use x="-655.999" y="-410" xlink:href="#fM" fill="#e6e7e8"/></g><g><use x="-655.999" y="-410" xlink:href="#fN" fill="#e6e7e8"/></g><g><use x="-655.999" y="-410" xlink:href="#fO" fill="#e6e7e8"/></g><g><use x="-655.999" y="-410" xlink:href="#fP" fill="#e6e7e8"/></g><g><use x="-655.999" y="-410" xlink:href="#fQ" fill="#e6e7e8"/></g><g><use x="-655.999" y="-410" xlink:href="#fR" fill="#808285"/></g><g><use x="-655.999" y="-410" xlink:href="#fS" fill="#808285"/></g><g><use x="-655.999" y="-410" xlink:href="#fT" fill="#808285"/></g><g><use x="-655.999" y="-410" xlink:href="#fU" fill="#808285"/></g><g><use x="-655.999" y="-410" xlink:href="#fV" fill="#e6e7e8"/></g><g><use x="-655.999" y="-410" xlink:href="#fW" fill="#e6e7e8"/></g><g><use x="-655.999" y="-410" xlink:href="#fX" fill="#e6e7e8"/></g><g><use x="-655.999" y="-410" xlink:href="#fY" fill="#e6e7e8"/></g><g><use x="-655.999" y="-410" xlink:href="#fZ" fill="#bcbec0"/></g><g><use x="-655.999" y="-410" xlink:href="#ga" fill="#a7a9ac"/></g><g><use x="-655.999" y="-410" xlink:href="#gb" fill="#bcbec0"/></g><g><use x="-655.999" y="-410" xlink:href="#gc" fill="#a7a9ac"/></g><g><use x="-655.999" y="-410" xlink:href="#gd" fill="#231f20"/></g><g><use x="-655.999" y="-410" xlink:href="#ge"/></g><g><use x="-655.999" y="-410" xlink:href="#gf" fill="#bcbec0"/></g><g><use x="-655.999" y="-410" xlink:href="#gg" fill="#808285"/></g><g><use x="-655.999" y="-410" xlink:href="#gh" fill="#58595b"/></g><g><use x="-655.999" y="-410" xlink:href="#gi" fill="#231f20"/></g><g><use x="-655.999" y="-410" xlink:href="#gj" fill="#fff"/></g><g><use x="-655.999" y="-410" xlink:href="#gk" fill="#6d6e71"/></g><g opacity=".2"><use x="-655.999" y="-410" xlink:href="#gl"/></g><g><use x="-655.999" y="-410" xlink:href="#gm" fill="#e6e7e8"/></g><g><use x="-655.999" y="-410" xlink:href="#gn" fill="#231f20"/></g><g><use x="-655.999" y="-410" xlink:href="#go" fill="#a7a9ac"/></g><g><use x="-655.999" y="-410" xlink:href="#gp" fill="#58595b"/></g><g><use x="-655.999" y="-410" xlink:href="#gq" fill="#a7a9ac"/></g><g><use x="-655.999" y="-410" xlink:href="#gr" fill="#a7a9ac"/></g><g><use x="-655.999" y="-410" xlink:href="#gs" fill="#6d6e71"/></g><g><use x="-655.999" y="-410" xlink:href="#gt" fill="#959799"/></g><g><use x="-655.999" y="-410" xlink:href="#gu" fill="#959799"/></g><g><use x="-655.999" y="-410" xlink:href="#gv" fill="#959799"/></g><g><use x="-655.999" y="-410" xlink:href="#gw" fill="#959799"/></g><g><use x="-655.999" y="-410" xlink:href="#gx" fill="#959799"/></g><g><use x="-655.999" y="-410" xlink:href="#gy" fill="#959799"/></g><g><use x="-655.999" y="-410" xlink:href="#gz" fill="#959799"/></g><g><use x="-655.999" y="-410" xlink:href="#gA" fill="#959799"/></g><g><use x="-655.999" y="-410" xlink:href="#gB" fill="#e6e7e8"/></g><g><use x="-655.999" y="-410" xlink:href="#gC" fill="#d1d3d4"/></g><g><use x="-655.999" y="-410" xlink:href="#gD" fill="#d1d3d4"/></g><g><use x="-655.999" y="-410" xlink:href="#gE" fill="#bcbec0"/></g><g><use x="-655.999" y="-410" xlink:href="#gF" fill="#a7a9ac"/></g><g><use x="-655.999" y="-410" xlink:href="#gG" fill="#414042"/></g><g><use x="-655.999" y="-410" xlink:href="#gH" fill="#2c2c2d"/></g><g><use x="-655.999" y="-410" xlink:href="#gI" fill="#231f20"/></g><g><use x="-655.999" y="-410" xlink:href="#gJ" fill="#e6e7e8"/></g><g><use x="-655.999" y="-410" xlink:href="#gK" fill="#d1d3d4"/></g><g><use x="-655.999" y="-410" xlink:href="#gL" fill="#e6e7e8"/></g><g><use x="-655.999" y="-410" xlink:href="#gM" fill="#be1e2d"/></g><g><use x="-655.999" y="-410" xlink:href="#gN" fill="#e6e7e8"/></g><g><use x="-655.999" y="-410" xlink:href="#gO" fill="#6d6e71"/></g><g><use x="-655.999" y="-410" xlink:href="#gP" fill="#f1f2f2"/></g><g><use x="-655.999" y="-410" xlink:href="#gQ" fill="#d8270b"/><use x="-655.999" y="-410" xlink:href="#gR" fill="#f45c3b"/><use x="-655.999" y="-410" xlink:href="#gS" fill="#c62837" opacity=".4"/><use x="-655.999" y="-410" xlink:href="#gT" fill="#c62837" opacity=".4"/><use x="-655.999" y="-410" xlink:href="#gU" fill="#c62837" opacity=".4"/><use x="-655.999" y="-410" xlink:href="#gV" fill="#fff"/><use x="-655.999" y="-410" xlink:href="#gW" fill="#353535"/><use x="-655.999" y="-410" xlink:href="#gX" fill="#c62837" opacity=".4"/><use x="-655.999" y="-410" xlink:href="#gY" fill="#fff"/><use x="-655.999" y="-410" xlink:href="#gZ" fill="#353535"/><use x="-655.999" y="-410" xlink:href="#ha" fill="#5b5b5b"/><use x="-655.999" y="-410" xlink:href="#hb" fill="#000f11"/><use x="-655.999" y="-410" xlink:href="#hc" fill="#000f11"/><use x="-655.999" y="-410" xlink:href="#hd" fill="#a3192d"/><use x="-655.999" y="-410" xlink:href="#he" fill="#ff193c"/><use x="-655.999" y="-410" xlink:href="#hf" fill="#ff193c"/><use x="-655.999" y="-410" xlink:href="#hg" fill="#870821"/><use x="-655.999" y="-410" xlink:href="#hh" fill="#870821"/><use x="-655.999" y="-410" xlink:href="#hi" fill="#c62837" opacity=".4"/><use x="-655.999" y="-410" xlink:href="#hj" fill="#fff"/><use x="-655.999" y="-410" xlink:href="#hk" fill="#ffebec"/><use x="-655.999" y="-410" xlink:href="#hl" fill="#353535"/><use x="-655.999" y="-410" xlink:href="#hm" fill="#5b5b5b"/></g></g></svg>
